<svg width="145" height="36" viewBox="0 0 145 36" fill="none" xmlns="http://www.w3.org/2000/svg">
<path d="M70.5216 13.2355C69.6769 13.2179 68.8399 13.4006 68.0794 13.7686C67.319 14.1366 66.6564 14.6796 66.1462 15.3529V7.61414H62.8483V27.4482H66.0057V25.5745C66.4536 26.2571 67.0724 26.8107 67.8005 27.1805C68.5286 27.5503 69.3406 27.7233 70.156 27.6824C73.6133 27.6824 75.9179 24.9842 75.9179 20.4121C75.9179 15.8401 73.81 13.2355 70.5216 13.2355ZM69.3411 24.9747C67.2611 24.9747 66.0526 23.2697 66.0526 20.2903C66.0526 17.6295 67.4579 15.9431 69.4534 15.9431C71.449 15.9431 72.4889 17.6577 72.4889 20.4683C72.4889 23.4383 71.2804 24.9747 69.3411 24.9747Z" fill="#C4C4C4"/>
<path d="M50.2189 7.61414L42.7238 27.4482H46.5743L48.1766 22.7637H56.0185L57.5923 27.4482H61.4618L54.2102 7.61414H50.2189ZM49.0478 20.0093C50.7904 15.1093 51.493 13.1793 52.0928 11.1837C53.0296 14.0787 53.9665 16.8051 55.1001 20.0093H49.0478Z" fill="#C4C4C4"/>
<path d="M129.527 25.0965C127.363 25.0965 126.07 23.4664 126.07 20.4121C126.07 17.2923 127.541 15.8588 129.452 15.8588C130.773 15.8588 131.785 16.4772 132.179 18.3322L135.139 17.3204C134.858 16.0631 134.137 14.9474 133.107 14.1745C132.076 13.4015 130.803 13.022 129.518 13.1043C125.33 13.1043 122.688 15.915 122.688 20.4683C122.688 25.0216 125.274 27.8886 129.349 27.8886C130.634 27.9705 131.91 27.6192 132.971 26.8906C134.033 26.1617 134.819 25.098 135.205 23.8693L132.244 22.8574C132.16 23.5057 131.832 24.0977 131.328 24.5135C130.823 24.9292 130.18 25.1377 129.527 25.0965Z" fill="#C4C4C4"/>
<path d="M120.486 23.6819V18.6039C120.486 16.4116 120.186 15.2592 119.315 14.4348C118.74 13.9448 118.075 13.5733 117.356 13.3418C116.637 13.1102 115.88 13.0232 115.127 13.0856C111.548 13.0856 109.29 14.772 109.065 17.7701L112.223 18.0793C112.218 17.7422 112.285 17.4079 112.419 17.0988C112.554 16.7897 112.753 16.5129 113.003 16.2868C113.253 16.0606 113.549 15.8905 113.869 15.7876C114.191 15.6847 114.53 15.6515 114.865 15.6902C115.566 15.6308 116.263 15.842 116.814 16.2804C117.011 16.5114 117.16 16.7797 117.252 17.0694C117.343 17.3591 117.376 17.6643 117.348 17.9668V18.7257C115.201 18.7989 113.076 19.1872 111.042 19.8781C110.275 20.1536 109.613 20.664 109.153 21.3368C108.692 22.0096 108.455 22.8105 108.475 23.6257C108.475 26.1273 110.283 27.7386 112.841 27.7386C113.707 27.7818 114.571 27.6242 115.366 27.2779C116.16 26.9318 116.865 26.4065 117.423 25.743C117.732 27.1391 118.715 27.617 120.477 27.617C120.989 27.627 121.499 27.5508 121.985 27.392V25.2933C120.72 25.5183 120.486 24.7781 120.486 23.6819ZM117.348 21.5645C117.362 22.3478 117.151 23.1187 116.739 23.785C116.414 24.2551 115.976 24.6355 115.465 24.8911C114.954 25.1465 114.386 25.2689 113.816 25.2466C112.345 25.2466 111.67 24.4876 111.67 23.4758C111.656 23.0948 111.768 22.7199 111.988 22.4085C112.208 22.0971 112.524 21.8665 112.888 21.7519C114.32 21.2246 115.831 20.9397 117.357 20.9087L117.348 21.5645Z" fill="#C4C4C4"/>
<path d="M85.9521 17.5452L88.3976 15.8869C87.8061 14.9767 86.9858 14.2379 86.019 13.7446C85.0522 13.2513 83.9725 13.0208 82.8886 13.0762C79.4221 13.0762 77.4638 15.1093 77.4638 17.3016C77.4638 19.4939 78.8411 20.7025 81.0054 21.3771L82.4951 21.8549C84.603 22.5295 85.0809 22.923 85.0809 23.8505C85.0809 24.778 84.2939 25.3215 82.8604 25.3215C82.1038 25.3242 81.3623 25.1093 80.7243 24.7023C80.0863 24.2953 79.5792 23.7134 79.2628 23.026L76.6958 24.7124C77.3412 25.7073 78.2319 26.5195 79.2818 27.0708C80.332 27.6222 81.5063 27.8941 82.6919 27.8604C86.1771 27.8604 88.3132 25.9867 88.3132 23.3914C88.3132 21.1429 86.9079 19.9905 84.4345 19.2035L83.0102 18.7538C81.2114 18.1917 80.7617 17.8169 80.7617 16.955C80.7617 16.093 81.4364 15.5683 82.8417 15.5683C83.4924 15.5775 84.1278 15.7671 84.6769 16.1162C85.2262 16.4652 85.6677 16.96 85.9521 17.5452Z" fill="#C4C4C4"/>
<path d="M142.887 25.0686C141.875 25.0686 141.463 24.5625 141.463 23.1197V16.1024H144.18V13.4697H141.463V8.89764H138.193L138.137 13.4697H135.935V16.1024H138.137V23.7662C138.033 24.8157 138.313 25.8673 138.924 26.7268C139.295 27.1011 139.745 27.3872 140.241 27.564C140.738 27.7408 141.267 27.8037 141.791 27.748C142.619 27.7408 143.443 27.6339 144.246 27.4294V24.8155C143.81 24.9749 143.351 25.0606 142.887 25.0686Z" fill="#C4C4C4"/>
<path d="M95.0589 23.1197V16.1024H97.7665V13.4697H95.0589V8.89764H91.7891L91.7327 13.4697H89.5686V16.1024H91.7702V23.7662C91.6665 24.8157 91.946 25.8673 92.5572 26.7268C92.928 27.1011 93.3782 27.3872 93.8743 27.564C94.3707 27.7408 94.9003 27.8037 95.4242 27.748C96.2521 27.7408 97.0764 27.6339 97.8789 27.4294V24.8155C97.4432 24.9749 96.984 25.0606 96.5203 25.0686C95.4711 25.0686 95.0589 24.5625 95.0589 23.1197Z" fill="#C4C4C4"/>
<path d="M102.779 15.634V13.4697H99.6307V27.5231H102.929V20.9649C102.835 19.8485 103.076 18.7295 103.622 17.7513C103.952 17.2727 104.404 16.8915 104.931 16.6475C105.459 16.4036 106.042 16.3059 106.62 16.3647C107.029 16.3674 107.436 16.4273 107.829 16.5427V13.4697C107.438 13.3447 107.03 13.2846 106.62 13.2917C105.819 13.2519 105.024 13.454 104.339 13.8717C103.654 14.2894 103.11 14.9034 102.779 15.634Z" fill="#C4C4C4"/>
<path d="M15.0295 17.4205C14.5145 17.4209 14.0059 17.5348 13.5399 17.754C13.0739 17.9732 12.6619 18.2923 12.3332 18.6888C12.0046 19.0853 11.7673 19.5493 11.6383 20.0479C11.5092 20.5464 11.4916 21.0673 11.5867 21.5734C11.7129 22.2635 12.0427 22.9001 12.5337 23.4011C13.0246 23.9023 13.6543 24.2449 14.3417 24.3851C15.0291 24.5253 15.7427 24.4566 16.3907 24.1878C17.0387 23.919 17.5915 23.4624 17.9778 22.8768C18.3644 22.2997 18.5709 21.6208 18.5711 20.9262C18.5602 19.9967 18.1897 19.1075 17.5374 18.4453C17.2079 18.117 16.8166 17.8574 16.3861 17.6815C15.9556 17.5056 15.4945 17.4169 15.0295 17.4205Z" fill="#C4C4C4"/>
<path d="M17.9778 0C3.59557 0 0 3.59557 0 17.9778C0 32.3601 3.59557 35.9557 17.9778 35.9557C32.3601 35.9557 35.9557 32.3601 35.9557 17.9778C35.9557 3.59557 32.3601 0 17.9778 0ZM19.8925 25.7892C18.7723 26.9233 17.293 27.6329 15.7075 27.797C14.1219 27.9608 12.5287 27.569 11.2002 26.6881C10.072 25.9265 9.19087 24.8516 8.66532 23.5959C8.14856 22.3384 8.01412 20.9564 8.2788 19.6228C8.5396 18.2872 9.19384 17.06 10.1575 16.0992C10.8738 15.3768 11.7412 14.8219 12.6973 14.4743C13.6534 14.1268 14.6746 13.9951 15.6876 14.0887C16.7006 14.1824 17.6804 14.4991 18.5565 15.016C19.4327 15.533 20.1836 16.2375 20.7554 17.079C21.6356 18.4061 22.0272 19.9978 21.8632 21.5818C21.6992 23.1658 20.9899 24.6436 19.8565 25.7622L19.8925 25.7892ZM27.5331 27.5331H24.1622V11.8025H8.43161V8.43161H27.5331V27.5331Z" fill="#C4C4C4"/>
</svg>
