<svg width="139" height="36" viewBox="0 0 139 36" fill="none" xmlns="http://www.w3.org/2000/svg">
<path d="M59.9681 23.9735L58.4795 28.5643C58.46 28.6387 58.4155 28.7041 58.3534 28.7496C58.2914 28.795 58.2155 28.8177 58.1386 28.814H54.5251C54.3088 28.814 54.2449 28.6891 54.2784 28.5094L60.4857 10.594C60.6925 9.98432 60.7953 9.34426 60.7901 8.70048C60.7876 8.64752 60.8053 8.59558 60.8398 8.55538C60.8745 8.51516 60.9232 8.48974 60.9759 8.48434H65.941C66.0963 8.48434 66.1572 8.51478 66.1907 8.67004L73.235 28.5338C73.2959 28.6891 73.2655 28.814 73.0797 28.814H69.0522C68.9783 28.8265 68.9024 28.8115 68.8389 28.7715C68.7755 28.7316 68.7288 28.6697 68.7083 28.5978L67.1253 23.9735H59.9681ZM65.9897 20.0921C65.3809 18.0433 64.1267 14.2897 63.5392 12.0857H63.5088C63.0094 14.1649 61.8922 17.5654 61.0733 20.0921H65.9897Z" fill="#C4C4C4"/>
<path d="M73.7312 21.2398C73.7312 16.8013 77.0526 13.0781 82.7331 13.0781C82.9798 13.0781 83.2901 13.1086 83.7561 13.139V7.02615C83.7526 6.99694 83.7558 6.96733 83.7656 6.93956C83.775 6.91177 83.791 6.88655 83.8118 6.86575C83.8325 6.84495 83.8577 6.82915 83.8854 6.81948C83.9134 6.80982 83.9428 6.8066 83.9721 6.81H87.884C88.0393 6.81 88.0698 6.8709 88.0698 6.99569V25.3373C88.0615 26.0944 88.1032 26.8509 88.1946 27.6022C88.1946 27.7576 88.1641 27.8215 87.9784 27.8824C86.0443 28.7044 83.9641 29.1269 81.8624 29.1244C77.2686 29.1244 73.7312 26.5186 73.7312 21.2398ZM83.7561 16.8347C83.386 16.7137 82.997 16.6611 82.6082 16.6795C80.2184 16.6795 78.1697 18.1377 78.1697 21.0236C78.1697 24.0953 79.9385 25.4317 82.2979 25.4317C82.7908 25.4524 83.2839 25.3897 83.7561 25.2459V16.8347Z" fill="#C4C4C4"/>
<path d="M105.845 21.0236C105.845 25.8943 102.679 29.1244 98.21 29.1244C92.901 29.1244 90.5447 25.1213 90.5447 21.118C90.5447 16.7099 93.4916 13.0781 98.2709 13.0781C103.27 13.0781 105.845 16.8347 105.845 21.0236ZM94.9193 21.0541C94.9193 23.7939 96.1917 25.523 98.2679 25.523C100.07 25.523 101.434 23.9735 101.434 21.118C101.434 18.6826 100.441 16.6795 98.0854 16.6795C96.2861 16.6795 94.9193 18.2929 94.9193 21.0541Z" fill="#C4C4C4"/>
<path d="M112.369 6.81003C112.615 6.81003 112.673 6.84047 112.673 7.0566V13.4191C113.523 13.1916 114.4 13.077 115.279 13.0781C119.846 13.0781 122.729 16.3051 122.729 20.4635C122.729 26.2689 118.135 29.1244 113.419 29.1244C111.769 29.1359 110.126 28.8947 108.549 28.409C108.494 28.3788 108.448 28.3349 108.415 28.2814C108.383 28.228 108.364 28.1671 108.363 28.1046V7.02616C108.363 6.8709 108.424 6.81003 108.579 6.81003H112.369ZM114.5 16.7404C113.882 16.7327 113.266 16.8168 112.673 16.99V25.4165C113.05 25.5021 113.435 25.543 113.821 25.5383C116.18 25.5383 118.32 24.1105 118.32 20.8836C118.327 18.0433 116.683 16.7404 114.509 16.7404H114.5Z" fill="#C4C4C4"/>
<path d="M128.802 22.2352C128.957 24.0039 130.199 25.4621 133.24 25.4621C134.548 25.4873 135.848 25.2439 137.058 24.7467C137.152 24.6858 137.244 24.7163 137.244 24.902V27.8519C137.244 28.0679 137.183 28.1563 137.027 28.2232C135.785 28.814 134.422 29.1366 132.279 29.1366C126.442 29.1366 124.397 25.1333 124.397 21.2854C124.397 17.0021 127.033 13.0903 131.907 13.0903C136.592 13.0903 138.455 16.7221 138.455 19.7876C138.477 20.4843 138.425 21.1812 138.3 21.8669C138.296 21.9317 138.268 21.9927 138.222 22.0386C138.176 22.0845 138.115 22.1122 138.05 22.1165C136.988 22.2169 135.921 22.2585 134.854 22.2413L128.802 22.2352ZM132.839 19.2245C133.356 19.2434 133.874 19.222 134.388 19.1605V18.9444C134.379 18.6092 134.304 18.2792 134.165 17.9736C134.028 17.668 133.83 17.3929 133.585 17.1645C133.339 16.936 133.051 16.7588 132.736 16.6431C132.421 16.5274 132.087 16.4756 131.752 16.4907C129.797 16.4907 128.957 17.952 128.771 19.2305L132.839 19.2245Z" fill="#C4C4C4"/>
<path d="M25.9336 0H40.9508V35.9557L25.9336 0Z" fill="#C4C4C4"/>
<path d="M15.3516 0H0.322144V35.9557L15.3516 0Z" fill="#C4C4C4"/>
<path d="M20.6425 13.2516L30.2105 35.9557H23.9394L21.0778 28.7256H14.076L20.6425 13.2516Z" fill="#C4C4C4"/>
</svg>
