<svg width="117" height="36" viewBox="0 0 117 36" fill="none" xmlns="http://www.w3.org/2000/svg">
<path d="M61.3677 9.03389C61.3677 10.3296 60.324 11.3733 59.0284 11.3733C57.7325 11.3733 56.6887 10.3296 56.6887 9.03389C56.6887 7.73818 57.6965 6.69442 59.0284 6.69442C60.36 6.73042 61.3677 7.77416 61.3677 9.03389ZM51.7219 13.7488C51.7219 13.9647 51.7219 14.3247 51.7219 14.3247C51.7219 14.3247 50.6062 12.885 48.2307 12.885C44.3078 12.885 41.2483 15.8723 41.2483 20.0113C41.2483 24.1144 44.2715 27.1378 48.2307 27.1378C50.6422 27.1378 51.7219 25.6621 51.7219 25.6621V26.2738C51.7219 26.5617 51.9378 26.7777 52.2257 26.7777H55.1412V13.2449C55.1412 13.2449 52.4777 13.2449 52.2257 13.2449C51.9378 13.2449 51.7219 13.4969 51.7219 13.7488ZM51.7219 22.4228C51.182 23.2146 50.1024 23.8984 48.8067 23.8984C46.503 23.8984 44.7395 22.4588 44.7395 20.0113C44.7395 17.5639 46.503 16.1242 48.8067 16.1242C50.0664 16.1242 51.218 16.8441 51.7219 17.5999V22.4228ZM57.3007 13.2449H60.756V26.7777H57.3007V13.2449ZM108.913 12.885C106.537 12.885 105.421 14.3247 105.421 14.3247V6.73042H101.966V26.7777C101.966 26.7777 104.63 26.7777 104.882 26.7777C105.169 26.7777 105.385 26.5258 105.385 26.2738V25.6621C105.385 25.6621 106.501 27.1378 108.877 27.1378C112.8 27.1378 115.859 24.1144 115.859 20.0113C115.859 15.9083 112.8 12.885 108.913 12.885ZM108.337 23.8625C107.005 23.8625 105.962 23.1786 105.421 22.3868V17.5639C105.962 16.8441 107.113 16.0882 108.337 16.0882C110.64 16.0882 112.404 17.5279 112.404 19.9753C112.404 22.4228 110.64 23.8625 108.337 23.8625ZM100.167 18.7516V26.8137H96.7117V19.1475C96.7117 16.916 95.9918 16.0163 94.0482 16.0163C93.0045 16.0163 91.9246 16.5561 91.2409 17.348V26.7777H87.7857V13.2449H90.521C90.8089 13.2449 91.0249 13.4969 91.0249 13.7488V14.3247C92.0327 13.2809 93.3643 12.885 94.6959 12.885C96.2075 12.885 97.4675 13.3169 98.4752 14.1807C99.6987 15.1884 100.167 16.4842 100.167 18.7516ZM79.3995 12.885C77.0242 12.885 75.9083 14.3247 75.9083 14.3247V6.73042H72.4531V26.7777C72.4531 26.7777 75.1165 26.7777 75.3685 26.7777C75.6564 26.7777 75.8723 26.5258 75.8723 26.2738V25.6621C75.8723 25.6621 76.9882 27.1378 79.3636 27.1378C83.2867 27.1378 86.3459 24.1144 86.3459 20.0113C86.3819 15.9083 83.3227 12.885 79.3995 12.885ZM78.8237 23.8625C77.4921 23.8625 76.4481 23.1786 75.9083 22.3868V17.5639C76.4481 16.8441 77.6 16.0882 78.8237 16.0882C81.1271 16.0882 82.8907 17.5279 82.8907 19.9753C82.8907 22.4228 81.1271 23.8625 78.8237 23.8625ZM69.4657 12.885C70.5097 12.885 71.0496 13.0649 71.0496 13.0649V16.2682C71.0496 16.2682 68.1701 15.2964 66.3706 17.348V26.8137H62.9153V13.2449C62.9153 13.2449 65.5788 13.2449 65.8307 13.2449C66.1186 13.2449 66.3346 13.4969 66.3346 13.7488V14.3247C66.9823 13.5688 68.3861 12.885 69.4657 12.885ZM33.5822 25.554C33.4022 25.1223 33.2222 24.6543 33.0424 24.2584C32.7542 23.6105 32.4663 22.9986 32.2144 22.4228L32.1784 22.3868C29.695 16.988 27.0315 11.5173 24.2243 6.11855L24.1163 5.9026C23.8284 5.36274 23.5405 4.78687 23.2525 4.211C22.8926 3.56315 22.5327 2.8793 21.9568 2.23145C20.8051 0.791786 19.1495 -3.05176e-05 17.3859 -3.05176e-05C15.5863 -3.05176e-05 13.9667 0.791786 12.779 2.15947C12.2391 2.80731 11.8432 3.49117 11.4833 4.13902C11.1953 4.71488 10.9074 5.29075 10.6194 5.83063L10.5115 6.04657C7.74012 11.4453 5.04075 16.916 2.55732 22.3148L2.52133 22.3868C2.26938 22.9627 1.98145 23.5745 1.69352 24.2224C1.51356 24.6183 1.3336 25.0501 1.15364 25.518C0.68575 26.8499 0.541783 28.1096 0.721742 29.4052C1.11765 32.1047 2.91723 34.3721 5.40065 35.3799C6.33645 35.7756 7.30823 35.9557 8.31598 35.9557C8.60393 35.9557 8.96384 35.9197 9.25178 35.8837C10.4395 35.7397 11.6632 35.3439 12.8509 34.66C14.3266 33.832 15.7303 32.6445 17.3139 30.9169C18.8975 32.6445 20.3372 33.832 21.7769 34.66C22.9646 35.3439 24.1883 35.7397 25.376 35.8837C25.664 35.9197 26.0238 35.9557 26.3119 35.9557C27.3197 35.9557 28.3274 35.7756 29.2271 35.3799C31.7465 34.3721 33.5101 32.0684 33.9061 29.4052C34.194 28.1455 34.0501 26.8858 33.5822 25.554ZM17.3499 27.4257C15.4063 24.9782 14.1466 22.6747 13.7147 20.7312C13.5348 19.9034 13.4988 19.1835 13.6068 18.5357C13.6788 17.9598 13.8947 17.4559 14.1826 17.024C14.8665 16.0523 16.0182 15.4404 17.3499 15.4404C18.6816 15.4404 19.8693 16.0163 20.5172 17.024C20.8051 17.4559 21.0211 17.9598 21.093 18.5357C21.201 19.1835 21.165 19.9394 20.985 20.7312C20.5532 22.6387 19.2935 24.9422 17.3499 27.4257ZM31.7105 29.1173C31.4586 30.9888 30.1989 32.6085 28.4353 33.3281C27.5716 33.6882 26.6358 33.7961 25.6999 33.6882C24.8002 33.5801 23.9004 33.2922 22.9646 32.7524C21.6689 32.0325 20.3732 30.9169 18.8615 29.2612C21.237 26.346 22.6767 23.6825 23.2165 21.307C23.4685 20.1913 23.5045 19.1835 23.3965 18.2478C23.2525 17.348 22.9286 16.5202 22.4247 15.8003C21.309 14.1807 19.4374 13.2449 17.3499 13.2449C15.2624 13.2449 13.3908 14.2167 12.2751 15.8003C11.7712 16.5202 11.4473 17.348 11.3033 18.2478C11.1593 19.1835 11.1953 20.2273 11.4833 21.307C12.0231 23.6825 13.4988 26.382 15.8382 29.2971C14.3626 30.9528 13.0309 32.0684 11.7352 32.7883C10.7994 33.3281 9.89961 33.6163 8.99982 33.7242C8.02806 33.832 7.09227 33.6882 6.26446 33.3643C4.50086 32.6445 3.24116 31.0247 2.98922 29.1533C2.88124 28.2534 2.95323 27.3538 3.31315 26.346C3.42112 25.9859 3.60107 25.6261 3.78102 25.1942C4.03299 24.6183 4.32091 24.0064 4.60885 23.3946L4.64483 23.3226C7.12827 17.9598 9.79164 12.4891 12.563 7.16232L12.671 6.94636C12.9589 6.4065 13.2469 5.83063 13.5348 5.29075C13.8227 4.71488 14.1466 4.175 14.5425 3.7071C15.2984 2.84332 16.3061 2.37542 17.4219 2.37542C18.5376 2.37542 19.5454 2.84332 20.3012 3.7071C20.6971 4.175 21.0211 4.71488 21.309 5.29075C21.5969 5.83063 21.8849 6.4065 22.1728 6.94636L22.2807 7.16232C25.0161 12.5251 27.6795 17.9958 30.1629 23.3586V23.3946C30.4508 23.9704 30.7028 24.6183 30.9907 25.1942C31.1707 25.6261 31.3507 25.9859 31.4586 26.346C31.7465 27.2816 31.8546 28.1815 31.7105 29.1173Z" fill="#C4C4C4"/>
</svg>
