<svg width="136" height="36" viewBox="0 0 136 36" fill="none" xmlns="http://www.w3.org/2000/svg">
<path d="M48.8174 28.8562C49.3675 28.8562 49.5203 28.5813 49.7343 27.9089L51.4764 22.7743H59.3002L61.0728 27.9089C61.2868 28.5813 61.5008 28.8562 62.0508 28.8562L62.3547 28.8559C63.0791 28.8539 64.174 28.84 64.4654 28.7341C64.7098 28.6117 64.8319 28.3978 64.8319 28.1533C64.8319 27.8477 64.7403 27.5421 64.6182 27.206L58.475 9.26579C57.9554 7.73767 57.6498 7.0653 55.9995 7.0653H55.2355C53.4322 7.0653 53.0045 7.7988 52.4849 9.32691L46.2196 27.2669C46.0973 27.5725 46.0056 27.9089 46.0056 28.1838C46.0056 28.3978 46.0668 28.6422 46.3724 28.7341C46.7085 28.8257 48.2978 28.8562 48.8174 28.8562ZM58.475 19.7487H52.3625C54.2574 14.003 54.8992 12.1081 55.4495 10.1827C56.03 12.1081 56.5801 13.9418 58.475 19.7487ZM72.1976 28.9174C72.7477 28.9174 72.9921 28.7646 73.0837 28.3366C73.1449 28.0617 73.2061 27.4197 73.2061 26.9613C73.2061 26.564 73.0228 26.3196 72.6253 26.2584C71.7392 26.1056 71.1279 25.8307 70.8835 25.4027C70.6695 25.0054 70.5778 24.4858 70.5778 23.569V6.69855C70.5778 6.17899 70.4555 5.90393 69.9054 5.90393H67.9189C67.3688 5.90393 67.1853 6.20955 67.1853 6.69855V23.9968C67.1853 25.5251 67.3688 26.5336 67.766 27.1753C68.4385 28.2449 69.5998 28.9174 72.1976 28.9174ZM78.4322 35.9162C78.9825 35.9162 79.2881 35.7327 79.2881 35.1215V28.6729C79.9603 29.009 81.2747 29.1618 82.222 29.1618C87.2343 29.1618 89.6486 27.5725 89.6486 20.8184C89.6486 14.8281 87.6927 13.0861 83.2305 13.0861C80.9995 13.0861 78.2793 13.5751 77.0569 14.1252C76.5984 14.3391 76.2012 14.6142 76.0483 15.0115C75.9262 15.3171 75.8955 15.8061 75.8955 16.234V35.1215C75.8955 35.7634 76.1095 35.9162 76.5984 35.9162H78.4322ZM81.9468 26.2279C81.1523 26.2279 80.205 26.1056 79.7465 25.8916C79.4102 25.7695 79.2881 25.5555 79.2881 24.9137V17.7316C79.2881 17.3954 79.2881 17.1203 79.3797 16.9369C79.4409 16.7536 79.6242 16.6007 79.8686 16.4785C80.6327 16.1423 81.8552 15.9589 82.8637 15.9589C85.5838 15.9589 86.2256 17.3954 86.2256 20.8489C86.2256 25.0359 85.4006 26.2279 81.9468 26.2279ZM98.0532 29.1618C100.162 29.1618 102.79 28.7646 103.982 28.2757C104.471 28.0921 104.746 27.8477 104.96 27.5725C105.235 27.2364 105.297 26.7475 105.297 26.1972V18.2817C105.297 16.2034 105.052 15.0115 104.257 14.2474C103.402 13.3917 102.026 13.0555 99.3981 13.0555C97.8088 13.0555 95.8222 13.3 94.2636 13.7585C93.8968 13.8807 93.6524 14.0946 93.6524 14.5531C93.6524 14.8281 93.7745 15.5922 93.8968 16.0506C93.9885 16.3563 94.1718 16.5396 94.4774 16.5396C94.6914 16.5396 95.3026 16.4174 95.6999 16.3562C96.7696 16.1423 97.9311 16.0201 98.9089 16.0201C100.926 16.0201 101.507 16.4174 101.751 17.0592C101.904 17.4565 101.935 18.1289 101.935 18.7095V19.7181C101.14 19.6264 99.9177 19.5959 98.9701 19.5959C96.9531 19.5959 95.1193 19.9015 94.1413 20.5127C92.9493 21.2768 92.4299 22.4076 92.4299 24.2413C92.4299 26.8696 93.3772 29.1618 98.0532 29.1618ZM98.4812 26.5028C96.189 26.5028 95.6694 25.5555 95.6694 24.1496C95.6694 23.2939 95.8834 22.8355 96.3418 22.5604C96.8919 22.1937 97.8392 22.0408 99.3674 22.0408C100.223 22.0408 101.293 22.102 101.935 22.1631V24.547C101.935 24.9443 101.904 25.3111 101.812 25.586C101.751 25.8 101.568 25.9835 101.293 26.1056C100.743 26.3196 99.7953 26.5028 98.4812 26.5028ZM115.688 29.1618C117.155 29.1618 118.774 29.009 120.119 28.5201C120.486 28.3978 120.639 28.1838 120.639 27.7865C120.639 27.4809 120.455 26.7475 120.333 26.2891C120.242 26.0139 120.058 25.8611 119.814 25.8611C119.569 25.8611 119.172 25.9528 118.927 26.0139C118.041 26.1972 117.216 26.2891 116.055 26.2891C113.09 26.2891 112.356 24.547 112.356 21.0934C112.356 17.9761 112.907 15.9895 116.299 15.9895C117.246 15.9895 118.01 16.0812 118.622 16.2034C118.897 16.234 119.294 16.3257 119.538 16.3257C119.814 16.3257 119.997 16.1729 120.089 15.8673C120.211 15.4088 120.394 14.4308 120.394 14.1252C120.394 13.8196 120.242 13.5751 119.875 13.4528C118.927 13.1778 117.613 13.0555 116.269 13.0555C110.859 13.0555 108.934 15.6839 108.934 21.3685C108.934 27.3281 111.379 29.1618 115.688 29.1618ZM128.127 29.1618C130.235 29.1618 132.864 28.7646 134.056 28.2757C134.545 28.0921 134.82 27.8477 135.034 27.5725C135.309 27.2364 135.37 26.7475 135.37 26.1972V18.2817C135.37 16.2034 135.125 15.0115 134.331 14.2474C133.475 13.3917 132.1 13.0555 129.471 13.0555C127.882 13.0555 125.896 13.3 124.337 13.7585C123.97 13.8807 123.726 14.0946 123.726 14.5531C123.726 14.8281 123.848 15.5922 123.97 16.0506C124.062 16.3563 124.245 16.5396 124.551 16.5396C124.765 16.5396 125.376 16.4174 125.773 16.3562C126.843 16.1423 128.004 16.0201 128.982 16.0201C130.999 16.0201 131.58 16.4174 131.825 17.0592C131.977 17.4565 132.008 18.1289 132.008 18.7095V19.7181C131.213 19.6264 129.991 19.5959 129.044 19.5959C127.026 19.5959 125.193 19.9015 124.215 20.5127C123.023 21.2768 122.503 22.4076 122.503 24.2413C122.503 26.8696 123.451 29.1618 128.127 29.1618ZM128.554 26.5028C126.262 26.5028 125.743 25.5555 125.743 24.1496C125.743 23.2939 125.957 22.8355 126.415 22.5604C126.965 22.1937 127.913 22.0408 129.441 22.0408C130.296 22.0408 131.366 22.102 132.008 22.1631V24.547C132.008 24.9443 131.977 25.3111 131.886 25.586C131.825 25.8 131.641 25.9835 131.366 26.1056C130.816 26.3196 129.869 26.5028 128.554 26.5028Z" fill="#C4C4C4"/>
<path fill-rule="evenodd" clip-rule="evenodd" d="M14.2486 35.5664L14.2439 17.3782C9.74739 17.7551 9.88503 13.5258 9.88503 13.5258C10.986 12.6656 11.9153 11.648 12.6729 10.4729C13.741 8.81631 16.6297 8.26406 16.6297 8.26406L15.9417 6.14862C17.4106 5.81928 18.4157 8.26406 18.4157 8.26406V5.44399C19.2255 5.71346 19.7456 6.02065 19.9761 6.36558C20.0601 6.4913 20.1351 6.62464 20.2021 6.76204C20.7063 7.79634 20.7551 9.06211 20.7551 9.06211C22.0153 9.88549 23.407 11.2124 23.7425 13.9486C23.7425 15.4032 24.1309 29.7588 24.2692 34.8276C31.1002 32.28 35.9652 25.6971 35.9652 17.9778C35.9652 8.04895 27.9164 0 17.9874 0C8.05848 0 0.00952148 8.04895 0.00952148 17.9778C0.00952148 26.6247 6.11412 33.8458 14.2486 35.5664Z" fill="#C4C4C4"/>
<path d="M18.4303 8.35592C18.9268 8.35592 19.3292 7.70407 19.3292 6.89996C19.3292 6.09588 18.9268 5.44403 18.4303 5.44403C17.9339 5.44403 17.5314 6.09588 17.5314 6.89996C17.5314 7.70407 17.9339 8.35592 18.4303 8.35592Z" fill="#C4C4C4"/>
<path fill-rule="evenodd" clip-rule="evenodd" d="M9.93661 13.6969C10.0066 13.6969 10.1376 13.7356 10.1376 13.5467C10.1376 13.3577 10.1487 13.3707 10.0811 13.368C9.93082 13.4782 9.88438 13.4637 9.88438 13.5467C9.88438 13.6296 9.8667 13.6969 9.93661 13.6969Z" fill="#C4C4C4"/>
<path fill-rule="evenodd" clip-rule="evenodd" d="M15.928 6.13564C15.7627 6.19257 15.7948 6.72104 15.9997 7.31606C16.2046 7.91107 16.5047 8.34729 16.6699 8.29038C16.8352 8.23345 16.8031 7.70498 16.5982 7.10996C16.3934 6.51494 16.0933 6.07873 15.928 6.13564Z" fill="#C4C4C4"/>
<path d="M14.3156 12.7035H15.4057C15.9311 12.7035 16.0818 12.0275 16.0818 12.0275H14.917C14.3903 12.0275 14.3156 12.7035 14.3156 12.7035Z" fill="#C4C4C4"/>
</svg>
