<svg width="96" height="36" viewBox="0 0 96 36" fill="none" xmlns="http://www.w3.org/2000/svg">
<path d="M13.3889 3.78741C13.1281 3.21839 12.7666 2.96353 12.2272 2.96353C11.6878 2.96353 11.3263 3.21839 11.0596 3.78741L0.758365 26.8022C0.645751 27.0214 0.592407 27.2112 0.592407 27.3831C0.592407 28.0528 1.09028 28.527 1.80745 28.527C2.48314 28.527 2.79727 28.0941 2.93952 27.7386L5.94453 21.0351H18.5158L21.5149 27.7327C21.6572 28.0941 21.9713 28.527 22.647 28.527C23.3641 28.527 23.862 28.0587 23.862 27.3831C23.862 27.2112 23.8087 27.0214 23.702 26.8081L13.3889 3.78741ZM6.91658 18.7947L12.2272 6.57311L17.5378 18.7947H6.91658Z" fill="#C4C4C4"/>
<path d="M36.0184 11.4155C33.274 11.4155 31.0396 12.4883 29.5222 14.5213V12.8143C29.5222 12.109 28.9711 11.5637 28.2716 11.5637C27.5664 11.5637 27.0211 12.1149 27.0211 12.8143V34.2051C27.0211 34.9102 27.5723 35.4556 28.2716 35.4556C28.977 35.4556 29.5222 34.9043 29.5222 34.2051V25.5694C31.0396 27.6022 33.274 28.675 36.0184 28.675C40.7244 28.675 44.2746 24.9647 44.2746 20.0453C44.2746 15.1258 40.7244 11.4155 36.0184 11.4155ZM41.7676 20.0453C41.7676 23.8445 39.2663 26.4999 35.6804 26.4999C32.1124 26.4999 29.5222 23.7852 29.5222 20.0453C29.5222 16.3053 32.1124 13.5907 35.6804 13.5907C39.2663 13.5848 41.7676 16.2401 41.7676 20.0453Z" fill="#C4C4C4"/>
<path d="M55.6131 11.5637C53.3193 11.5637 51.3515 12.7728 50.4152 14.6932V12.8143C50.4152 12.0912 49.8875 11.5637 49.1646 11.5637C48.4415 11.5637 47.9138 12.0912 47.9138 12.8143V27.2703C47.9138 27.94 48.5008 28.5211 49.1646 28.5211C49.858 28.5211 50.4152 27.958 50.4152 27.2703V20.8632C50.4152 16.7143 52.5548 13.81 55.6131 13.81C56.2355 13.81 56.8637 13.4544 56.8637 12.6661C56.8637 12.0201 56.3481 11.5637 55.6131 11.5637Z" fill="#C4C4C4"/>
<path d="M61.3566 11.5637C60.6515 11.5637 60.1061 12.1149 60.1061 12.8143V27.2703C60.1061 27.9757 60.6574 28.5211 61.3566 28.5211C62.062 28.5211 62.6072 27.9698 62.6072 27.2703V12.8143C62.6133 12.1149 62.062 11.5637 61.3566 11.5637Z" fill="#C4C4C4"/>
<path d="M61.6053 8.63263C62.4486 8.49576 63.0213 7.70114 62.8844 6.85781C62.7475 6.01446 61.953 5.44175 61.1097 5.57862C60.2664 5.7155 59.6937 6.51012 59.8303 7.35345C59.9672 8.1968 60.762 8.76951 61.6053 8.63263Z" fill="#C4C4C4"/>
<path d="M75.8124 11.4155C70.9168 11.4155 67.2184 15.1258 67.2184 20.0453C67.2184 24.9647 70.9109 28.675 75.8124 28.675C80.7142 28.675 84.4067 24.9647 84.4067 20.0453C84.4067 15.1258 80.7142 11.4155 75.8124 11.4155ZM75.8124 13.6263C79.2799 13.6263 81.8997 16.3883 81.8997 20.0453C81.8997 23.7082 79.2799 26.4642 75.8124 26.4642C72.3452 26.4642 69.7254 23.7082 69.7254 20.0453C69.7254 16.3824 72.3452 13.6263 75.8124 13.6263Z" fill="#C4C4C4"/>
<path d="M91.0566 7.66963C90.6181 7.42661 90.2032 7.1421 89.8179 6.8102C89.4385 6.4842 89.0948 6.11672 88.7865 5.71368C88.591 6.17601 88.4428 6.66202 88.348 7.15397C88.0695 8.60016 88.2295 10.1412 88.9052 11.5696C90.0314 11.1784 91.1455 10.722 92.2481 10.2064C93.3504 9.69074 94.4114 9.12176 95.4307 8.50532C93.9076 8.70092 92.3724 8.39272 91.0566 7.66963Z" fill="#C4C4C4"/>
<path d="M94.5362 1.35733C94.2516 2.83317 93.5107 4.20823 92.3906 5.25732C92.0289 5.59516 91.6259 5.90338 91.1873 6.16417C90.9739 6.29457 90.7547 6.4131 90.5235 6.51979C90.2923 6.62647 90.0611 6.72132 89.824 6.80429C90.2094 7.1362 90.6242 7.4207 91.0628 7.66372C92.3786 8.38682 93.9137 8.69501 95.4371 8.50535C95.3837 6.12859 95.0931 3.72815 94.5362 1.35733Z" fill="#C4C4C4"/>
<path d="M88.0102 4.42157C87.2811 4.51642 86.5461 4.71792 85.8469 5.04985C85.1415 5.38176 84.519 5.8085 83.9798 6.31229C85.4497 8.25637 87.1093 10.0167 88.9111 11.5696C88.2414 10.1352 88.0813 8.59421 88.3539 7.15395C88.4487 6.65606 88.5969 6.17599 88.7926 5.71366C88.9881 5.25136 89.2312 4.80683 89.5215 4.39193C89.0177 4.34453 88.5139 4.35637 88.0102 4.42157Z" fill="#C4C4C4"/>
<path d="M87.4532 0C88.7395 0.711247 89.8241 1.8196 90.4997 3.24803C90.7191 3.71626 90.8851 4.19043 90.9978 4.67051C91.1163 5.16839 91.1756 5.66625 91.1874 6.16413C91.6259 5.89743 92.029 5.59514 92.3904 5.2573C93.5107 4.20821 94.2516 2.83312 94.5362 1.35729C92.2366 0.657903 89.8657 0.207447 87.4532 0Z" fill="#C4C4C4"/>
<path d="M87.4532 0C86.0722 1.98556 84.9046 4.10152 83.9739 6.31231C84.5133 5.80852 85.1358 5.37583 85.841 5.04984C86.5464 4.71794 87.2754 4.5105 88.0045 4.42159C88.5083 4.35639 89.012 4.35045 89.5099 4.39194C90.0136 4.43343 90.5115 4.52827 90.9916 4.67645C90.8791 4.19634 90.7132 3.71627 90.4938 3.25394C89.83 1.8196 88.7454 0.711247 87.4532 0Z" fill="#C4C4C4"/>
<path d="M85.7284 11.7652C85.7284 12.3757 85.3313 12.7728 84.7147 12.7728C84.0984 12.7728 83.7013 12.3757 83.7013 11.7652C83.7013 11.1547 84.0984 10.7576 84.7147 10.7576C85.3313 10.7576 85.7284 11.1547 85.7284 11.7652ZM85.5149 11.7652C85.5149 11.2673 85.2008 10.9473 84.7088 10.9473C84.2169 10.9473 83.9027 11.2673 83.9027 11.7652C83.9027 12.2631 84.2169 12.5831 84.7088 12.5831C85.2008 12.5831 85.5149 12.2631 85.5149 11.7652ZM84.9282 11.9015L85.2187 12.3164H84.9935L84.7268 11.9193H84.5251V12.3164H84.3237V11.2199H84.7741C85.023 11.2199 85.189 11.3562 85.189 11.5696C85.1949 11.7415 85.0882 11.86 84.9282 11.9015ZM84.5251 11.7711H84.7741C84.9164 11.7711 84.9935 11.7059 84.9935 11.5696C84.9935 11.4333 84.9164 11.374 84.7741 11.374H84.5251V11.7711Z" fill="#C4C4C4"/>
</svg>
