<svg width="257" height="260" viewBox="0 0 257 260" fill="none" xmlns="http://www.w3.org/2000/svg">
<g filter="url(#filter0_d_1_2298)">
<rect x="32.4158" y="25.5986" width="182.179" height="200.961" rx="7.51254" fill="white"/>
</g>
<path d="M73.9659 54.0787L75.7046 48.1857H76.2494L75.8092 49.9355L73.9549 56.1971H73.4322L73.9659 54.0787ZM71.9465 48.1857L73.4102 54.0237L73.8504 56.1971H73.3056L71.2532 48.1857H71.9465ZM78.5934 54.0237L80.035 48.1857H80.7283L78.6814 56.1971H78.1367L78.5934 54.0237ZM76.3099 48.1857L78.0266 54.0787L78.5549 56.1971H78.0321L76.2164 49.9355L75.7707 48.1857H76.3099ZM84.0077 56.3072C83.6189 56.3072 83.2612 56.2356 82.9347 56.0926C82.6119 55.9495 82.3295 55.7478 82.0874 55.4873C81.8489 55.2269 81.6637 54.9187 81.5316 54.5629C81.4033 54.2034 81.3391 53.8109 81.3391 53.3854V53.1488C81.3391 52.6903 81.4069 52.2758 81.5426 51.9053C81.6784 51.5348 81.8654 51.2175 82.1039 50.9534C82.3423 50.6893 82.6138 50.4875 82.9182 50.3481C83.2264 50.2051 83.5492 50.1335 83.8866 50.1335C84.2645 50.1335 84.6001 50.2014 84.8936 50.3371C85.187 50.4692 85.4328 50.6581 85.6309 50.9039C85.8326 51.146 85.9849 51.4339 86.0876 51.7677C86.1903 52.0979 86.2417 52.4629 86.2417 52.8627V53.2644H81.7352V52.7031H85.5869V52.6261C85.5795 52.2923 85.5117 51.9805 85.3833 51.6907C85.2586 51.3972 85.0715 51.1588 84.822 50.9754C84.5726 50.792 84.2608 50.7003 83.8866 50.7003C83.6079 50.7003 83.3511 50.759 83.1163 50.8764C82.8852 50.9937 82.6853 51.1625 82.5166 51.3826C82.3515 51.599 82.2231 51.8576 82.1314 52.1584C82.0434 52.4555 81.9993 52.7857 81.9993 53.1488V53.3854C81.9993 53.7156 82.047 54.0237 82.1424 54.3098C82.2414 54.5923 82.3808 54.8417 82.5606 55.0581C82.744 55.2746 82.9604 55.4433 83.2099 55.5644C83.4593 55.6854 83.7344 55.7459 84.0352 55.7459C84.3874 55.7459 84.6992 55.6817 84.9706 55.5534C85.2421 55.4213 85.486 55.214 85.7024 54.9316L86.1151 55.2507C85.9867 55.4415 85.8253 55.6175 85.6309 55.7789C85.4401 55.9404 85.2109 56.0687 84.9431 56.1641C84.6753 56.2595 84.3635 56.3072 84.0077 56.3072ZM89.8402 56.3072C89.4514 56.3072 89.0937 56.2356 88.7672 56.0926C88.4444 55.9495 88.162 55.7478 87.9199 55.4873C87.6814 55.2269 87.4962 54.9187 87.3641 54.5629C87.2357 54.2034 87.1715 53.8109 87.1715 53.3854V53.1488C87.1715 52.6903 87.2394 52.2758 87.3751 51.9053C87.5109 51.5348 87.6979 51.2175 87.9364 50.9534C88.1748 50.6893 88.4463 50.4875 88.7507 50.3481C89.0589 50.2051 89.3817 50.1335 89.7191 50.1335C90.097 50.1335 90.4326 50.2014 90.7261 50.3371C91.0195 50.4692 91.2653 50.6581 91.4634 50.9039C91.6651 51.146 91.8174 51.4339 91.9201 51.7677C92.0228 52.0979 92.0741 52.4629 92.0741 52.8627V53.2644H87.5677V52.7031H91.4194V52.6261C91.412 52.2923 91.3442 51.9805 91.2158 51.6907C91.0911 51.3972 90.904 51.1588 90.6545 50.9754C90.4051 50.792 90.0933 50.7003 89.7191 50.7003C89.4404 50.7003 89.1836 50.759 88.9488 50.8764C88.7177 50.9937 88.5178 51.1625 88.3491 51.3826C88.184 51.599 88.0556 51.8576 87.9639 52.1584C87.8759 52.4555 87.8318 52.7857 87.8318 53.1488V53.3854C87.8318 53.7156 87.8795 54.0237 87.9749 54.3098C88.0739 54.5923 88.2133 54.8417 88.3931 55.0581C88.5765 55.2746 88.7929 55.4433 89.0423 55.5644C89.2918 55.6854 89.5669 55.7459 89.8677 55.7459C90.2199 55.7459 90.5317 55.6817 90.8031 55.5534C91.0746 55.4213 91.3185 55.214 91.5349 54.9316L91.9476 55.2507C91.8192 55.4415 91.6578 55.6175 91.4634 55.7789C91.2726 55.9404 91.0434 56.0687 90.7756 56.1641C90.5078 56.2595 90.196 56.3072 89.8402 56.3072ZM94.0275 47.7455V56.1971H93.3727V47.7455H94.0275ZM97.7636 50.2436L94.9794 53.0058L93.7964 54.1503L93.6973 53.5065L94.6492 52.4775L96.9327 50.2436H97.7636ZM97.1913 56.1971L94.7043 53.1048L95.0674 52.5381L97.9837 56.1971H97.1913ZM99.6289 47.7455V56.1971H98.9741V47.7455H99.6289ZM103.194 55.6029L105.049 50.2436H105.758L103.238 57.1545C103.187 57.2903 103.121 57.4407 103.04 57.6057C102.963 57.7708 102.861 57.9285 102.732 58.0789C102.607 58.233 102.45 58.3577 102.259 58.4531C102.072 58.5521 101.843 58.6017 101.571 58.6017C101.502 58.6017 101.412 58.5925 101.302 58.5741C101.195 58.5595 101.118 58.5448 101.07 58.5301L101.065 57.9744C101.105 57.9854 101.164 57.9946 101.241 58.0019C101.318 58.0092 101.371 58.0129 101.401 58.0129C101.639 58.0129 101.839 57.9726 102 57.8919C102.165 57.8112 102.303 57.6901 102.413 57.5287C102.523 57.371 102.62 57.1729 102.705 56.9344L103.194 55.6029ZM101.461 50.2436L103.359 55.3553L103.536 56.0431L103.057 56.3127L100.746 50.2436H101.461ZM113.104 54.6785C113.104 54.5171 113.064 54.3575 112.983 54.1998C112.902 54.042 112.746 53.8971 112.515 53.7651C112.288 53.633 111.952 53.5212 111.508 53.4294C111.178 53.3561 110.883 53.2735 110.623 53.1818C110.366 53.0901 110.149 52.9801 109.973 52.8517C109.797 52.7233 109.663 52.5692 109.572 52.3895C109.48 52.2098 109.434 51.997 109.434 51.7512C109.434 51.5311 109.482 51.3239 109.577 51.1295C109.676 50.9314 109.816 50.759 109.995 50.6122C110.179 50.4618 110.399 50.3445 110.656 50.2601C110.916 50.1757 111.208 50.1335 111.53 50.1335C111.989 50.1335 112.381 50.2124 112.708 50.3701C113.038 50.5242 113.289 50.7351 113.462 51.0029C113.638 51.2707 113.726 51.5733 113.726 51.9108H113.071C113.071 51.7054 113.011 51.511 112.89 51.3275C112.772 51.1441 112.598 50.9937 112.367 50.8764C112.139 50.759 111.861 50.7003 111.53 50.7003C111.189 50.7003 110.912 50.7516 110.7 50.8543C110.487 50.9571 110.331 51.0873 110.232 51.245C110.137 51.4027 110.089 51.566 110.089 51.7347C110.089 51.8668 110.109 51.9878 110.149 52.0979C110.193 52.2043 110.27 52.3033 110.38 52.395C110.494 52.4867 110.656 52.5729 110.865 52.6536C111.074 52.7343 111.345 52.8132 111.679 52.8902C112.16 52.9966 112.552 53.1268 112.857 53.2809C113.165 53.4313 113.392 53.6184 113.539 53.8421C113.686 54.0622 113.759 54.33 113.759 54.6455C113.759 54.8912 113.708 55.1168 113.605 55.3223C113.502 55.524 113.354 55.6982 113.159 55.845C112.968 55.9917 112.737 56.1054 112.466 56.1861C112.198 56.2668 111.897 56.3072 111.563 56.3072C111.061 56.3072 110.635 56.2246 110.287 56.0596C109.942 55.8908 109.68 55.6707 109.5 55.3993C109.324 55.1242 109.236 54.8325 109.236 54.5244H109.891C109.913 54.8325 110.01 55.0765 110.182 55.2562C110.355 55.4323 110.566 55.557 110.815 55.6304C111.068 55.7038 111.318 55.7404 111.563 55.7404C111.901 55.7404 112.183 55.6909 112.411 55.5919C112.638 55.4928 112.811 55.3626 112.928 55.2012C113.045 55.0398 113.104 54.8656 113.104 54.6785ZM115.899 51.3881V58.4861H115.239V50.2436H115.855L115.899 51.3881ZM120.037 53.1653V53.2809C120.037 53.7247 119.986 54.1319 119.883 54.5024C119.78 54.8729 119.632 55.1939 119.437 55.4653C119.247 55.7331 119.01 55.9404 118.728 56.0871C118.445 56.2338 118.124 56.3072 117.765 56.3072C117.409 56.3072 117.092 56.2522 116.813 56.1421C116.534 56.0321 116.294 55.8762 116.092 55.6744C115.894 55.469 115.734 55.2305 115.613 54.9591C115.496 54.684 115.413 54.3832 115.366 54.0567V52.5326C115.421 52.1731 115.51 51.8466 115.635 51.5531C115.76 51.2597 115.92 51.0066 116.114 50.7938C116.312 50.5811 116.547 50.4178 116.818 50.3041C117.09 50.1904 117.4 50.1335 117.748 50.1335C118.111 50.1335 118.434 50.2051 118.717 50.3481C119.003 50.4875 119.243 50.6911 119.437 50.9589C119.635 51.223 119.784 51.5421 119.883 51.9163C119.986 52.2868 120.037 52.7031 120.037 53.1653ZM119.377 53.2809V53.1653C119.377 52.8169 119.34 52.494 119.267 52.1969C119.197 51.8998 119.089 51.6412 118.942 51.4211C118.799 51.1973 118.616 51.0231 118.392 50.8984C118.172 50.7736 117.91 50.7113 117.605 50.7113C117.29 50.7113 117.02 50.7645 116.796 50.8709C116.576 50.9736 116.393 51.1111 116.246 51.2835C116.099 51.4523 115.984 51.6375 115.899 51.8393C115.815 52.041 115.753 52.2391 115.712 52.4335V54.1888C115.782 54.4676 115.894 54.7262 116.048 54.9646C116.202 55.1994 116.407 55.3883 116.664 55.5313C116.925 55.6707 117.242 55.7404 117.616 55.7404C117.917 55.7404 118.177 55.6781 118.397 55.5534C118.617 55.4286 118.799 55.2544 118.942 55.0306C119.089 54.8069 119.197 54.5464 119.267 54.2493C119.34 53.9522 119.377 53.6294 119.377 53.2809ZM123.801 56.3072C123.412 56.3072 123.054 56.2356 122.728 56.0926C122.405 55.9495 122.122 55.7478 121.88 55.4873C121.642 55.2269 121.457 54.9187 121.325 54.5629C121.196 54.2034 121.132 53.8109 121.132 53.3854V53.1488C121.132 52.6903 121.2 52.2758 121.336 51.9053C121.471 51.5348 121.658 51.2175 121.897 50.9534C122.135 50.6893 122.407 50.4875 122.711 50.3481C123.019 50.2051 123.342 50.1335 123.68 50.1335C124.057 50.1335 124.393 50.2014 124.687 50.3371C124.98 50.4692 125.226 50.6581 125.424 50.9039C125.626 51.146 125.778 51.4339 125.881 51.7677C125.983 52.0979 126.035 52.4629 126.035 52.8627V53.2644H121.528V52.7031H125.38V52.6261C125.373 52.2923 125.305 51.9805 125.176 51.6907C125.052 51.3972 124.864 51.1588 124.615 50.9754C124.366 50.792 124.054 50.7003 123.68 50.7003C123.401 50.7003 123.144 50.759 122.909 50.8764C122.678 50.9937 122.478 51.1625 122.31 51.3826C122.145 51.599 122.016 51.8576 121.924 52.1584C121.836 52.4555 121.792 52.7857 121.792 53.1488V53.3854C121.792 53.7156 121.84 54.0237 121.935 54.3098C122.034 54.5923 122.174 54.8417 122.354 55.0581C122.537 55.2746 122.753 55.4433 123.003 55.5644C123.252 55.6854 123.527 55.7459 123.828 55.7459C124.18 55.7459 124.492 55.6817 124.764 55.5534C125.035 55.4213 125.279 55.214 125.495 54.9316L125.908 55.2507C125.78 55.4415 125.618 55.6175 125.424 55.7789C125.233 55.9404 125.004 56.0687 124.736 56.1641C124.468 56.2595 124.157 56.3072 123.801 56.3072ZM127.988 51.5146V56.1971H127.333V50.2436H127.96L127.988 51.5146ZM127.839 52.8517L127.548 52.6866C127.57 52.3345 127.641 52.0043 127.762 51.6962C127.883 51.3881 128.047 51.1166 128.252 50.8819C128.461 50.6471 128.705 50.4637 128.984 50.3316C129.266 50.1996 129.578 50.1335 129.919 50.1335C130.216 50.1335 130.482 50.1739 130.717 50.2546C130.952 50.3353 131.152 50.4637 131.317 50.6398C131.482 50.8158 131.607 51.0414 131.691 51.3165C131.779 51.5917 131.823 51.9273 131.823 52.3235V56.1971H131.163V52.318C131.163 51.9071 131.106 51.5862 130.992 51.3551C130.879 51.1203 130.717 50.9534 130.508 50.8543C130.299 50.7553 130.051 50.7058 129.765 50.7058C129.45 50.7058 129.173 50.7755 128.934 50.9149C128.7 51.0506 128.502 51.2285 128.34 51.4486C128.182 51.665 128.061 51.898 127.977 52.1474C127.893 52.3932 127.847 52.6279 127.839 52.8517ZM137.397 55.0416V47.7455H138.057V56.1971H137.441L137.397 55.0416ZM133.265 53.2809V53.1653C133.265 52.7031 133.318 52.2868 133.424 51.9163C133.531 51.5421 133.683 51.223 133.881 50.9589C134.083 50.6911 134.325 50.4875 134.607 50.3481C134.89 50.2051 135.209 50.1335 135.565 50.1335C135.913 50.1335 136.221 50.1904 136.489 50.3041C136.757 50.4178 136.986 50.5811 137.177 50.7938C137.371 51.0066 137.527 51.2597 137.645 51.5531C137.766 51.8466 137.854 52.1731 137.909 52.5326V54.0017C137.865 54.3392 137.784 54.6491 137.667 54.9316C137.549 55.2104 137.393 55.4543 137.199 55.6634C137.005 55.8688 136.77 56.0284 136.495 56.1421C136.223 56.2522 135.91 56.3072 135.554 56.3072C135.202 56.3072 134.884 56.2338 134.602 56.0871C134.319 55.9404 134.079 55.7331 133.881 55.4653C133.683 55.1939 133.531 54.8729 133.424 54.5024C133.318 54.1319 133.265 53.7247 133.265 53.2809ZM133.925 53.1653V53.2809C133.925 53.6294 133.96 53.9522 134.03 54.2493C134.099 54.5464 134.206 54.805 134.349 55.0251C134.492 55.2452 134.673 55.4176 134.893 55.5423C135.114 55.6671 135.374 55.7294 135.675 55.7294C136.053 55.7294 136.37 55.6579 136.627 55.5148C136.883 55.3681 137.089 55.1755 137.243 54.9371C137.397 54.695 137.509 54.4309 137.579 54.1448V52.4335C137.535 52.2391 137.47 52.041 137.386 51.8393C137.302 51.6375 137.186 51.4523 137.039 51.2835C136.896 51.1111 136.713 50.9736 136.489 50.8709C136.269 50.7645 136.001 50.7113 135.686 50.7113C135.381 50.7113 135.119 50.7736 134.899 50.8984C134.679 51.0231 134.495 51.1973 134.349 51.4211C134.206 51.6412 134.099 51.8998 134.03 52.1969C133.96 52.494 133.925 52.8169 133.925 53.1653ZM148.083 51.7787V52.3565H143.213V51.7787H148.083ZM143.373 48.1857V56.1971H142.696V48.1857H143.373ZM148.627 48.1857V56.1971H147.951V48.1857H148.627ZM150.157 53.3139V53.1323C150.157 52.6995 150.219 52.2996 150.344 51.9328C150.469 51.566 150.647 51.2487 150.878 50.9809C151.113 50.7131 151.393 50.5059 151.72 50.3591C152.046 50.2087 152.409 50.1335 152.809 50.1335C153.213 50.1335 153.578 50.2087 153.904 50.3591C154.231 50.5059 154.511 50.7131 154.746 50.9809C154.981 51.2487 155.16 51.566 155.285 51.9328C155.41 52.2996 155.472 52.6995 155.472 53.1323V53.3139C155.472 53.7467 155.41 54.1466 155.285 54.5134C155.16 54.8766 154.981 55.192 154.746 55.4598C154.515 55.7276 154.236 55.9367 153.91 56.0871C153.583 56.2338 153.22 56.3072 152.82 56.3072C152.417 56.3072 152.052 56.2338 151.725 56.0871C151.399 55.9367 151.118 55.7276 150.883 55.4598C150.649 55.192 150.469 54.8766 150.344 54.5134C150.219 54.1466 150.157 53.7467 150.157 53.3139ZM150.812 53.1323V53.3139C150.812 53.6404 150.856 53.9503 150.944 54.2438C151.032 54.5336 151.16 54.7922 151.329 55.0196C151.498 55.2434 151.707 55.4195 151.956 55.5479C152.206 55.6762 152.494 55.7404 152.82 55.7404C153.143 55.7404 153.427 55.6762 153.673 55.5479C153.922 55.4195 154.132 55.2434 154.3 55.0196C154.469 54.7922 154.596 54.5336 154.68 54.2438C154.768 53.9503 154.812 53.6404 154.812 53.3139V53.1323C154.812 52.8095 154.768 52.5032 154.68 52.2134C154.596 51.9236 154.467 51.665 154.295 51.4376C154.126 51.2102 153.917 51.0304 153.667 50.8984C153.418 50.7663 153.132 50.7003 152.809 50.7003C152.486 50.7003 152.2 50.7663 151.951 50.8984C151.705 51.0304 151.496 51.2102 151.323 51.4376C151.155 51.665 151.026 51.9236 150.938 52.2134C150.854 52.5032 150.812 52.8095 150.812 53.1323ZM160.65 54.8215V50.2436H161.31V56.1971H160.677L160.65 54.8215ZM160.771 53.7211L161.112 53.7101C161.112 54.0842 161.068 54.429 160.98 54.7445C160.892 55.06 160.755 55.3351 160.567 55.5699C160.38 55.8046 160.138 55.9862 159.841 56.1146C159.544 56.243 159.186 56.3072 158.768 56.3072C158.478 56.3072 158.212 56.2668 157.97 56.1861C157.732 56.1018 157.526 55.9697 157.354 55.79C157.182 55.6102 157.048 55.3773 156.952 55.0912C156.861 54.805 156.815 54.4584 156.815 54.0512V50.2436H157.47V54.0622C157.47 54.3814 157.504 54.6473 157.574 54.8601C157.648 55.0728 157.747 55.2434 157.871 55.3718C158 55.5002 158.146 55.5919 158.311 55.6469C158.477 55.7019 158.654 55.7294 158.845 55.7294C159.329 55.7294 159.711 55.6359 159.99 55.4488C160.272 55.2617 160.472 55.016 160.589 54.7115C160.71 54.4034 160.771 54.0732 160.771 53.7211ZM163.687 51.2285V56.1971H163.032V50.2436H163.671L163.687 51.2285ZM165.795 50.1996L165.778 50.8048C165.705 50.7938 165.633 50.7846 165.564 50.7773C165.494 50.77 165.419 50.7663 165.338 50.7663C165.052 50.7663 164.801 50.8195 164.584 50.9259C164.371 51.0286 164.192 51.1735 164.045 51.3606C163.898 51.544 163.786 51.7604 163.709 52.0098C163.632 52.2556 163.588 52.5197 163.577 52.8022L163.335 52.8957C163.335 52.5069 163.375 52.1456 163.456 51.8118C163.537 51.4779 163.66 51.1863 163.825 50.9369C163.994 50.6838 164.204 50.4875 164.458 50.3481C164.714 50.2051 165.015 50.1335 165.36 50.1335C165.444 50.1335 165.527 50.1409 165.608 50.1555C165.692 50.1666 165.754 50.1812 165.795 50.1996ZM170.395 54.6785C170.395 54.5171 170.354 54.3575 170.274 54.1998C170.193 54.042 170.037 53.8971 169.806 53.7651C169.578 53.633 169.243 53.5212 168.799 53.4294C168.469 53.3561 168.174 53.2735 167.913 53.1818C167.656 53.0901 167.44 52.9801 167.264 52.8517C167.088 52.7233 166.954 52.5692 166.862 52.3895C166.77 52.2098 166.725 51.997 166.725 51.7512C166.725 51.5311 166.772 51.3239 166.868 51.1295C166.967 50.9314 167.106 50.759 167.286 50.6122C167.469 50.4618 167.689 50.3445 167.946 50.2601C168.207 50.1757 168.498 50.1335 168.821 50.1335C169.279 50.1335 169.672 50.2124 169.998 50.3701C170.329 50.5242 170.58 50.7351 170.752 51.0029C170.928 51.2707 171.016 51.5733 171.016 51.9108H170.362C170.362 51.7054 170.301 51.511 170.18 51.3275C170.063 51.1441 169.888 50.9937 169.657 50.8764C169.43 50.759 169.151 50.7003 168.821 50.7003C168.48 50.7003 168.203 50.7516 167.99 50.8543C167.777 50.9571 167.621 51.0873 167.522 51.245C167.427 51.4027 167.379 51.566 167.379 51.7347C167.379 51.8668 167.4 51.9878 167.44 52.0979C167.484 52.2043 167.561 52.3033 167.671 52.395C167.785 52.4867 167.946 52.5729 168.155 52.6536C168.364 52.7343 168.636 52.8132 168.97 52.8902C169.45 52.9966 169.843 53.1268 170.147 53.2809C170.455 53.4313 170.683 53.6184 170.829 53.8421C170.976 54.0622 171.049 54.33 171.049 54.6455C171.049 54.8912 170.998 55.1168 170.895 55.3223C170.793 55.524 170.644 55.6982 170.45 55.845C170.259 55.9917 170.028 56.1054 169.756 56.1861C169.489 56.2668 169.188 56.3072 168.854 56.3072C168.351 56.3072 167.926 56.2246 167.577 56.0596C167.233 55.8908 166.97 55.6707 166.791 55.3993C166.615 55.1242 166.526 54.8325 166.526 54.5244H167.181C167.203 54.8325 167.3 55.0765 167.473 55.2562C167.645 55.4323 167.856 55.557 168.106 55.6304C168.359 55.7038 168.608 55.7404 168.854 55.7404C169.191 55.7404 169.474 55.6909 169.701 55.5919C169.929 55.4928 170.101 55.3626 170.219 55.2012C170.336 55.0398 170.395 54.8656 170.395 54.6785Z" fill="#898989"/>
<path d="M92.5772 79.4583V80.6028H86.3183L86.2706 79.7384L90.014 73.8729H91.1645L89.9187 76.0069L87.7668 79.4583H92.5772ZM91.4923 73.8729V82.552H90.0558V73.8729H91.4923ZM95.045 78.5164L93.9005 78.2363L94.3714 73.8729H99.0507V75.0889H95.5636L95.3252 77.217C95.4603 77.1375 95.6471 77.06 95.8855 76.9845C96.1239 76.905 96.3961 76.8653 96.7021 76.8653C97.1115 76.8653 97.4771 76.9328 97.7989 77.068C98.1248 77.1991 98.401 77.3918 98.6275 77.6462C98.854 77.8965 99.0269 78.2025 99.1461 78.5641C99.2653 78.9218 99.3249 79.3251 99.3249 79.7742C99.3249 80.1756 99.2653 80.5511 99.1461 80.9008C99.0309 81.2505 98.856 81.5585 98.6215 81.8247C98.3871 82.091 98.091 82.2996 97.7334 82.4506C97.3797 82.5977 96.9604 82.6712 96.4756 82.6712C96.114 82.6712 95.7663 82.6195 95.4325 82.5162C95.1026 82.4089 94.8066 82.2519 94.5443 82.0453C94.282 81.8347 94.0714 81.5764 93.9124 81.2704C93.7535 80.9604 93.6621 80.6047 93.6382 80.2034H95.045C95.0808 80.4855 95.1583 80.7259 95.2775 80.9246C95.4007 81.1194 95.5636 81.2684 95.7663 81.3717C95.969 81.475 96.2034 81.5267 96.4697 81.5267C96.7121 81.5267 96.9207 81.485 97.0956 81.4015C97.2704 81.3141 97.4155 81.1909 97.5307 81.0319C97.6499 80.869 97.7373 80.6783 97.793 80.4597C97.8526 80.2411 97.8824 79.9987 97.8824 79.7325C97.8824 79.4781 97.8486 79.2457 97.7811 79.035C97.7175 78.8244 97.6201 78.6416 97.489 78.4866C97.3618 78.3317 97.2009 78.2124 97.0061 78.129C96.8114 78.0416 96.5869 77.9979 96.3326 77.9979C95.9908 77.9979 95.7285 78.0475 95.5457 78.1469C95.3669 78.2462 95.2 78.3694 95.045 78.5164ZM105.018 73.3961V82.552H103.587V73.3961H105.018ZM104.767 79.0887L104.302 79.0827C104.306 78.6377 104.368 78.2264 104.487 77.8488C104.61 77.4713 104.781 77.1435 105 76.8653C105.222 76.5831 105.488 76.3666 105.798 76.2155C106.108 76.0606 106.452 75.9831 106.83 75.9831C107.148 75.9831 107.434 76.0268 107.688 76.1142C107.946 76.2016 108.169 76.3427 108.356 76.5374C108.542 76.7282 108.684 76.9785 108.779 77.2885C108.878 77.5945 108.928 77.968 108.928 78.4092V82.552H107.485V78.3972C107.485 78.0873 107.44 77.8409 107.348 77.6581C107.261 77.4753 107.132 77.3441 106.961 77.2647C106.79 77.1812 106.581 77.1395 106.335 77.1395C106.077 77.1395 105.848 77.1911 105.649 77.2945C105.455 77.3978 105.292 77.5389 105.161 77.7177C105.029 77.8965 104.93 78.1032 104.863 78.3376C104.799 78.5721 104.767 78.8224 104.767 79.0887ZM111.825 77.3302V82.552H110.388V76.1023H111.759L111.825 77.3302ZM113.798 76.0606L113.786 77.3958C113.699 77.3799 113.603 77.368 113.5 77.36C113.401 77.3521 113.301 77.3481 113.202 77.3481C112.955 77.3481 112.739 77.3839 112.552 77.4554C112.365 77.523 112.208 77.6223 112.081 77.7535C111.958 77.8806 111.863 78.0356 111.795 78.2184C111.728 78.4012 111.688 78.6059 111.676 78.8324L111.348 78.8562C111.348 78.4509 111.388 78.0753 111.467 77.7296C111.547 77.3839 111.666 77.0799 111.825 76.8176C111.988 76.5553 112.19 76.3507 112.433 76.2036C112.679 76.0566 112.963 75.9831 113.285 75.9831C113.373 75.9831 113.466 75.991 113.565 76.0069C113.669 76.0228 113.746 76.0407 113.798 76.0606ZM121.994 73.8193H122.173V74.9936H122.072C121.559 74.9936 121.116 75.073 120.742 75.232C120.373 75.391 120.069 75.6095 119.83 75.8877C119.592 76.1659 119.413 76.4917 119.294 76.8653C119.179 77.2349 119.121 77.6283 119.121 78.0455V79.4106C119.121 79.7563 119.159 80.0623 119.234 80.3286C119.31 80.5908 119.415 80.8114 119.55 80.9902C119.689 81.1651 119.848 81.2982 120.027 81.3896C120.206 81.481 120.399 81.5267 120.605 81.5267C120.82 81.5267 121.015 81.483 121.189 81.3956C121.364 81.3042 121.513 81.179 121.637 81.02C121.76 80.8611 121.853 80.6723 121.917 80.4537C121.98 80.2352 122.012 79.9967 122.012 79.7384C122.012 79.492 121.98 79.2616 121.917 79.047C121.857 78.8284 121.768 78.6377 121.648 78.4747C121.529 78.3078 121.38 78.1787 121.201 78.0873C121.027 77.9919 120.824 77.9442 120.593 77.9442C120.307 77.9442 120.047 78.0118 119.812 78.1469C119.582 78.282 119.395 78.4588 119.252 78.6774C119.113 78.892 119.038 79.1205 119.026 79.3629L118.477 79.1841C118.509 78.8145 118.59 78.4827 118.722 78.1886C118.857 77.8945 119.034 77.6442 119.252 77.4375C119.471 77.2309 119.723 77.0739 120.009 76.9666C120.299 76.8553 120.617 76.7997 120.963 76.7997C121.384 76.7997 121.75 76.8792 122.06 77.0381C122.37 77.1971 122.626 77.4137 122.829 77.6879C123.035 77.9581 123.188 78.2681 123.288 78.6178C123.391 78.9635 123.443 79.3251 123.443 79.7027C123.443 80.1199 123.379 80.5094 123.252 80.871C123.125 81.2286 122.938 81.5426 122.692 81.8128C122.449 82.083 122.153 82.2937 121.803 82.4447C121.458 82.5957 121.064 82.6712 120.623 82.6712C120.158 82.6712 119.743 82.5818 119.377 82.4029C119.016 82.2241 118.708 81.9777 118.453 81.6638C118.203 81.3499 118.012 80.9882 117.881 80.5789C117.75 80.1696 117.684 79.7364 117.684 79.2794V78.6834C117.684 78.0237 117.768 77.4018 117.935 76.8176C118.102 76.2295 118.358 75.7109 118.704 75.2618C119.053 74.8128 119.501 74.4611 120.045 74.2067C120.589 73.9484 121.239 73.8193 121.994 73.8193ZM130.25 77.4852V78.9039C130.25 79.5834 130.182 80.1636 130.047 80.6445C129.916 81.1214 129.725 81.5088 129.475 81.8069C129.225 82.1049 128.925 82.3235 128.575 82.4626C128.229 82.6016 127.842 82.6712 127.413 82.6712C127.071 82.6712 126.753 82.6275 126.459 82.54C126.169 82.4526 125.906 82.3155 125.672 82.1287C125.438 81.942 125.237 81.7015 125.07 81.4075C124.907 81.1094 124.78 80.7538 124.688 80.3405C124.601 79.9272 124.557 79.4483 124.557 78.9039V77.4852C124.557 76.8017 124.625 76.2255 124.76 75.7566C124.895 75.2837 125.088 74.9002 125.338 74.6061C125.589 74.3081 125.887 74.0915 126.232 73.9564C126.582 73.8213 126.971 73.7537 127.401 73.7537C127.746 73.7537 128.064 73.7974 128.354 73.8848C128.648 73.9683 128.911 74.1014 129.141 74.2842C129.376 74.467 129.574 74.7055 129.737 74.9995C129.904 75.2896 130.031 75.6413 130.119 76.0546C130.206 76.4639 130.25 76.9408 130.25 77.4852ZM128.813 79.1066V77.2706C128.813 76.9249 128.794 76.6209 128.754 76.3586C128.714 76.0924 128.654 75.8678 128.575 75.685C128.499 75.4983 128.404 75.3472 128.289 75.232C128.174 75.1128 128.042 75.0273 127.895 74.9757C127.748 74.92 127.583 74.8922 127.401 74.8922C127.178 74.8922 126.979 74.9359 126.805 75.0234C126.63 75.1068 126.483 75.2419 126.363 75.4287C126.244 75.6155 126.153 75.8619 126.089 76.1679C126.03 76.4699 126 76.8375 126 77.2706V79.1066C126 79.4563 126.02 79.7643 126.059 80.0305C126.099 80.2968 126.159 80.5253 126.238 80.716C126.318 80.9028 126.413 81.0578 126.524 81.181C126.64 81.3002 126.771 81.3876 126.918 81.4432C127.069 81.4989 127.234 81.5267 127.413 81.5267C127.639 81.5267 127.84 81.483 128.015 81.3956C128.189 81.3081 128.337 81.169 128.456 80.9783C128.575 80.7836 128.664 80.5312 128.724 80.2213C128.784 79.9113 128.813 79.5397 128.813 79.1066ZM136.092 77.4137V82.552H134.655V76.1023H136.008L136.092 77.4137ZM135.859 79.0887L135.37 79.0827C135.37 78.6377 135.426 78.2264 135.537 77.8488C135.649 77.4713 135.811 77.1435 136.026 76.8653C136.241 76.5831 136.507 76.3666 136.825 76.2155C137.147 76.0606 137.518 75.9831 137.94 75.9831C138.234 75.9831 138.502 76.0268 138.744 76.1142C138.991 76.1977 139.203 76.3308 139.382 76.5136C139.565 76.6964 139.704 76.9309 139.799 77.217C139.899 77.5031 139.948 77.8488 139.948 78.2542V82.552H138.512V78.3793C138.512 78.0654 138.464 77.819 138.369 77.6402C138.277 77.4614 138.144 77.3342 137.969 77.2587C137.798 77.1792 137.594 77.1395 137.355 77.1395C137.085 77.1395 136.855 77.1911 136.664 77.2945C136.477 77.3978 136.324 77.5389 136.205 77.7177C136.086 77.8965 135.998 78.1032 135.943 78.3376C135.887 78.5721 135.859 78.8224 135.859 79.0887ZM139.859 78.7072L139.185 78.8562C139.185 78.4668 139.239 78.0992 139.346 77.7535C139.458 77.4037 139.618 77.0978 139.829 76.8355C140.044 76.5692 140.308 76.3606 140.622 76.2096C140.936 76.0586 141.295 75.9831 141.701 75.9831C142.031 75.9831 142.325 76.0288 142.583 76.1202C142.845 76.2076 143.068 76.3467 143.251 76.5374C143.433 76.7282 143.573 76.9766 143.668 77.2825C143.763 77.5846 143.811 77.9502 143.811 78.3793V82.552H142.368V78.3734C142.368 78.0475 142.321 77.7952 142.225 77.6164C142.134 77.4375 142.003 77.3143 141.832 77.2468C141.661 77.1752 141.456 77.1395 141.218 77.1395C140.995 77.1395 140.799 77.1812 140.628 77.2647C140.461 77.3441 140.32 77.4574 140.205 77.6044C140.089 77.7475 140.002 77.9124 139.942 78.0992C139.887 78.286 139.859 78.4886 139.859 78.7072ZM146.827 76.1023V82.552H145.385V76.1023H146.827ZM145.289 74.4094C145.289 74.1908 145.361 74.01 145.504 73.867C145.651 73.7199 145.854 73.6464 146.112 73.6464C146.366 73.6464 146.567 73.7199 146.714 73.867C146.861 74.01 146.934 74.1908 146.934 74.4094C146.934 74.624 146.861 74.8028 146.714 74.9459C146.567 75.0889 146.366 75.1605 146.112 75.1605C145.854 75.1605 145.651 75.0889 145.504 74.9459C145.361 74.8028 145.289 74.624 145.289 74.4094ZM149.826 77.4793V82.552H148.389V76.1023H149.742L149.826 77.4793ZM149.569 79.0887L149.104 79.0827C149.108 78.6257 149.172 78.2065 149.295 77.825C149.422 77.4435 149.597 77.1156 149.82 76.8414C150.046 76.5672 150.316 76.3566 150.63 76.2096C150.944 76.0586 151.294 75.9831 151.679 75.9831C151.989 75.9831 152.269 76.0268 152.52 76.1142C152.774 76.1977 152.991 76.3348 153.17 76.5255C153.352 76.7163 153.491 76.9646 153.587 77.2706C153.682 77.5726 153.73 77.9442 153.73 78.3853V82.552H152.287V78.3793C152.287 78.0694 152.242 77.825 152.15 77.6462C152.063 77.4634 151.934 77.3342 151.763 77.2587C151.596 77.1792 151.387 77.1395 151.137 77.1395C150.891 77.1395 150.67 77.1911 150.475 77.2945C150.281 77.3978 150.116 77.5389 149.98 77.7177C149.849 77.8965 149.748 78.1032 149.676 78.3376C149.605 78.5721 149.569 78.8224 149.569 79.0887ZM158.815 80.8054C158.815 80.6624 158.779 80.5332 158.707 80.418C158.636 80.2988 158.499 80.1915 158.296 80.0961C158.097 80.0007 157.803 79.9133 157.414 79.8338C157.072 79.7583 156.758 79.6689 156.472 79.5656C156.19 79.4583 155.947 79.3291 155.745 79.1781C155.542 79.0271 155.385 78.8483 155.274 78.6416C155.162 78.435 155.107 78.1965 155.107 77.9263C155.107 77.664 155.164 77.4157 155.28 77.1812C155.395 76.9467 155.56 76.7401 155.774 76.5613C155.989 76.3825 156.249 76.2414 156.555 76.1381C156.865 76.0347 157.211 75.9831 157.593 75.9831C158.133 75.9831 158.596 76.0745 158.981 76.2573C159.371 76.4361 159.669 76.6805 159.876 76.9905C160.082 77.2965 160.186 77.6422 160.186 78.0277H158.749C158.749 77.8568 158.705 77.6978 158.618 77.5508C158.534 77.3998 158.407 77.2786 158.236 77.1872C158.065 77.0918 157.851 77.0441 157.593 77.0441C157.346 77.0441 157.141 77.0838 156.979 77.1633C156.82 77.2388 156.7 77.3382 156.621 77.4614C156.545 77.5846 156.508 77.7197 156.508 77.8667C156.508 77.974 156.528 78.0714 156.567 78.1588C156.611 78.2422 156.683 78.3197 156.782 78.3913C156.881 78.4588 157.016 78.5224 157.187 78.582C157.362 78.6416 157.581 78.6992 157.843 78.7549C158.336 78.8582 158.759 78.9913 159.113 79.1543C159.47 79.3132 159.744 79.5199 159.935 79.7742C160.126 80.0246 160.221 80.3425 160.221 80.7279C160.221 81.0141 160.16 81.2763 160.037 81.5148C159.917 81.7492 159.742 81.9539 159.512 82.1287C159.281 82.2996 159.005 82.4327 158.683 82.5281C158.365 82.6235 158.008 82.6712 157.61 82.6712C157.026 82.6712 156.532 82.5679 156.126 82.3612C155.721 82.1506 155.413 81.8824 155.202 81.5565C154.996 81.2267 154.892 80.8849 154.892 80.5312H156.281C156.297 80.7975 156.371 81.0101 156.502 81.169C156.637 81.324 156.804 81.4373 157.002 81.5088C157.205 81.5764 157.414 81.6101 157.628 81.6101C157.887 81.6101 158.103 81.5764 158.278 81.5088C158.453 81.4373 158.586 81.3419 158.677 81.2227C158.769 81.0995 158.815 80.9604 158.815 80.8054Z" fill="#6871D1"/>
<path d="M52.1362 120.914C52.1362 118.061 54.4486 115.749 57.3011 115.749C60.1536 115.749 62.466 118.061 62.466 120.914V209.656H52.1362V120.914Z" fill="#6871D1"/>
<path d="M74.6738 146.269C74.6738 143.416 76.9862 141.104 79.8387 141.104C82.6912 141.104 85.0036 143.416 85.0036 146.269V209.656H74.6738V146.269Z" fill="#343954" fill-opacity="0.2"/>
<path d="M97.2115 135.939C97.2115 133.087 99.5239 130.774 102.376 130.774C105.229 130.774 107.541 133.087 107.541 135.939V209.656H97.2115V135.939Z" fill="#5FAEC4"/>
<path d="M119.749 120.914C119.749 118.061 122.062 115.749 124.914 115.749C127.767 115.749 130.079 118.061 130.079 120.914V209.656H119.749V120.914Z" fill="#6871D1"/>
<path d="M142.287 162.233C142.287 159.38 144.599 157.068 147.452 157.068C150.304 157.068 152.616 159.38 152.616 162.233V209.656H142.287V162.233Z" fill="#D6D7DD"/>
<path d="M164.824 162.233C164.824 159.38 167.137 157.068 169.989 157.068C172.842 157.068 175.154 159.38 175.154 162.233V209.656H164.824V162.233Z" fill="#D6D7DD"/>
<path d="M187.362 120.914C187.362 118.061 189.674 115.749 192.527 115.749C195.379 115.749 197.692 118.061 197.692 120.914V209.656H187.362V120.914Z" fill="#6871D1"/>
<rect x="52.1362" y="208.717" width="145.556" height="0.939068" fill="#343954"/>
<g filter="url(#filter1_ddd_1_2298)">
<rect x="8" y="4" width="44.1362" height="44.1362" rx="7.51254" fill="#5FAEC4"/>
<g clip-path="url(#clip0_1_2298)">
<path d="M42.7455 35.0936V16.1035C42.7455 15.384 42.4597 14.694 41.951 14.1853C41.4422 13.6765 40.7522 13.3907 40.0327 13.3907H21.0426C20.3231 13.3907 19.6331 13.6765 19.1244 14.1853C18.6156 14.694 18.3298 15.384 18.3298 16.1035V35.0936C18.3298 35.8131 18.6156 36.5031 19.1244 37.0119C19.6331 37.5206 20.3231 37.8064 21.0426 37.8064H40.0327C40.7522 37.8064 41.4422 37.5206 41.951 37.0119C42.4597 36.5031 42.7455 35.8131 42.7455 35.0936ZM26.4684 33.7372H23.7555V25.5986H26.4684V33.7372ZM31.8941 33.7372H29.1812V18.8164H31.8941V33.7372ZM37.3198 33.7372H34.607V22.8857H37.3198V33.7372Z" fill="white"/>
</g>
</g>
<defs>
<filter id="filter0_d_1_2298" x="32.4158" y="20.9032" width="224.437" height="238.523" filterUnits="userSpaceOnUse" color-interpolation-filters="sRGB">
<feFlood flood-opacity="0" result="BackgroundImageFix"/>
<feColorMatrix in="SourceAlpha" type="matrix" values="0 0 0 0 0 0 0 0 0 0 0 0 0 0 0 0 0 0 127 0" result="hardAlpha"/>
<feOffset dx="23.4767" dy="14.086"/>
<feGaussianBlur stdDeviation="9.39068"/>
<feComposite in2="hardAlpha" operator="out"/>
<feColorMatrix type="matrix" values="0 0 0 0 0 0 0 0 0 0 0 0 0 0 0 0 0 0 0.08 0"/>
<feBlend mode="normal" in2="BackgroundImageFix" result="effect1_dropShadow_1_2298"/>
<feBlend mode="normal" in="SourceGraphic" in2="effect1_dropShadow_1_2298" result="shape"/>
</filter>
<filter id="filter1_ddd_1_2298" x="0.487455" y="0.243728" width="59.1613" height="59.1613" filterUnits="userSpaceOnUse" color-interpolation-filters="sRGB">
<feFlood flood-opacity="0" result="BackgroundImageFix"/>
<feColorMatrix in="SourceAlpha" type="matrix" values="0 0 0 0 0 0 0 0 0 0 0 0 0 0 0 0 0 0 127 0" result="hardAlpha"/>
<feOffset/>
<feGaussianBlur stdDeviation="0.469534"/>
<feColorMatrix type="matrix" values="0 0 0 0 0 0 0 0 0 0 0 0 0 0 0 0 0 0 0.25 0"/>
<feBlend mode="normal" in2="BackgroundImageFix" result="effect1_dropShadow_1_2298"/>
<feColorMatrix in="SourceAlpha" type="matrix" values="0 0 0 0 0 0 0 0 0 0 0 0 0 0 0 0 0 0 127 0" result="hardAlpha"/>
<feOffset/>
<feGaussianBlur stdDeviation="0.939068"/>
<feColorMatrix type="matrix" values="0 0 0 0 0.372549 0 0 0 0 0.682353 0 0 0 0 0.768627 0 0 0 0.25 0"/>
<feBlend mode="normal" in2="effect1_dropShadow_1_2298" result="effect2_dropShadow_1_2298"/>
<feColorMatrix in="SourceAlpha" type="matrix" values="0 0 0 0 0 0 0 0 0 0 0 0 0 0 0 0 0 0 127 0" result="hardAlpha"/>
<feOffset dy="3.75627"/>
<feGaussianBlur stdDeviation="3.75627"/>
<feColorMatrix type="matrix" values="0 0 0 0 0.372549 0 0 0 0 0.682353 0 0 0 0 0.768627 0 0 0 0.25 0"/>
<feBlend mode="normal" in2="effect2_dropShadow_1_2298" result="effect3_dropShadow_1_2298"/>
<feBlend mode="normal" in="SourceGraphic" in2="effect3_dropShadow_1_2298" result="shape"/>
</filter>
<clipPath id="clip0_1_2298">
<rect width="24.4158" height="24.4158" fill="white" transform="translate(18.3298 13.3907)"/>
</clipPath>
</defs>
</svg>
