<svg width="68" height="68" viewBox="0 0 68 68" fill="none" xmlns="http://www.w3.org/2000/svg">
<circle cx="33.8894" cy="33.8894" r="33.8894" fill="#5FAEC4" fill-opacity="0.2"/>
<g clip-path="url(#clip0_1_2437)">
<path fill-rule="evenodd" clip-rule="evenodd" d="M28.1 20H44.3C45.0161 20 45.7028 20.2845 46.2092 20.7908C46.7155 21.2972 47 21.9839 47 22.7V38.9C47 39.6161 46.7155 40.3028 46.2092 40.8092C45.7028 41.3155 45.0161 41.6 44.3 41.6H28.1C27.3839 41.6 26.6971 41.3155 26.1908 40.8092C25.6845 40.3028 25.4 39.6161 25.4 38.9V22.7C25.4 21.9839 25.6845 21.2972 26.1908 20.7908C26.6971 20.2845 27.3839 20 28.1 20ZM38.5865 24.3635C37.9535 23.7306 37.0951 23.375 36.2 23.375C35.3049 23.375 34.4464 23.7306 33.8135 24.3635C33.1806 24.9964 32.825 25.8549 32.825 26.75C32.825 27.6451 33.1806 28.5036 33.8135 29.1365C34.4464 29.7694 35.3049 30.125 36.2 30.125C37.0951 30.125 37.9535 29.7694 38.5865 29.1365C39.2194 28.5036 39.575 27.6451 39.575 26.75C39.575 25.8549 39.2194 24.9964 38.5865 24.3635ZM29.45 37.55H42.95V37.2125C42.95 34.7164 39.9071 32.15 36.2 32.15C32.4929 32.15 29.45 34.7164 29.45 37.2125V37.55ZM20 28.1H22.7V44.3H38.9V47H22.7C21.211 47 20 45.7891 20 44.3V28.1Z" fill="#5FAEC4"/>
</g>
<defs>
<clipPath id="clip0_1_2437">
<rect width="27" height="27" fill="white" transform="translate(20 20)"/>
</clipPath>
</defs>
</svg>
