<svg width="68" height="68" viewBox="0 0 68 68" fill="none" xmlns="http://www.w3.org/2000/svg">
<circle cx="33.8894" cy="33.8894" r="33.8894" fill="#5FAEC4" fill-opacity="0.2"/>
<path fill-rule="evenodd" clip-rule="evenodd" d="M21.9823 23.6035C21.9823 22.7082 22.7082 21.9823 23.6035 21.9823H26.104V26.104H21.9823V23.6035ZM28.8518 27.4779L28.8518 27.4763V21.9823H39.843V27.4779V32.9735H28.8518V27.4796L28.8518 27.4779ZM42.5908 28.8518V32.9735H46.7125V28.8518H42.5908ZM46.7125 26.104H42.5908V21.9823H45.0913C45.9866 21.9823 46.7125 22.7082 46.7125 23.6035V26.104ZM49.4603 27.4779V34.3474V41.2169V45.0913C49.4603 47.5042 47.5042 49.4603 45.0913 49.4603H41.2169H27.4779H23.6035C21.1906 49.4603 19.2346 47.5042 19.2346 45.0913V41.2169V34.3474V27.4779V23.6035C19.2346 21.1906 21.1906 19.2346 23.6035 19.2346H27.4779H41.2169H45.0913C47.5042 19.2346 49.4603 21.1906 49.4603 23.6035V27.4779ZM21.9823 28.8518H26.104V32.9735H21.9823V28.8518ZM46.7125 35.7213V39.843H42.5908V35.7213H46.7125ZM46.7125 42.5908H42.5908V46.7125H45.0913C45.9866 46.7125 46.7125 45.9866 46.7125 45.0913V42.5908ZM39.843 35.7213V41.2169V46.7125H28.8518V41.2185L28.8518 41.2169L28.8518 41.2153V35.7213H39.843ZM21.9823 42.5908V45.0913C21.9823 45.9866 22.7082 46.7125 23.6035 46.7125H26.104V42.5908H21.9823ZM26.104 39.843H21.9823V35.7213H26.104V39.843Z" fill="#5FAEC4"/>
</svg>
