<svg width="68" height="68" viewBox="0 0 68 68" fill="none" xmlns="http://www.w3.org/2000/svg">
<circle cx="33.8894" cy="33.8894" r="33.8894" fill="#5FAEC4" fill-opacity="0.2"/>
<path fill-rule="evenodd" clip-rule="evenodd" d="M28 21H46C46.7956 21 47.5587 21.3161 48.1213 21.8787C48.6839 22.4413 49 23.2044 49 24V42C49 42.7956 48.6839 43.5587 48.1213 44.1213C47.5587 44.6839 46.7956 45 46 45H28C27.2044 45 26.4413 44.6839 25.8787 44.1213C25.3161 43.5587 25 42.7956 25 42V24C25 23.2044 25.3161 22.4413 25.8787 21.8787C26.4413 21.3161 27.2044 21 28 21ZM43 33L32.5 27V39L43 33ZM19 30H22V48H40V51H22C21.2044 51 20.4413 50.6839 19.8787 50.1213C19.3161 49.5587 19 48.7956 19 48V30Z" fill="#5FAEC4"/>
</svg>
