<svg width="138" height="26" viewBox="0 0 138 26" fill="none" xmlns="http://www.w3.org/2000/svg">
<rect width="21.6547" height="25.8654" fill="#6871D1"/>
<rect x="121.381" y="17.9197" width="4.33655" height="4.33655" fill="#6871D1"/>
<rect x="127.522" y="17.9197" width="4.33655" height="4.33655" fill="#6871D1"/>
<rect x="133.663" y="17.9197" width="4.33655" height="4.33655" fill="#6871D1"/>
<path d="M7.77583 4.83986V20.4061H4.29053V4.83986H7.77583ZM17.0771 4.83986L10.9832 12.623L7.43371 16.4718L6.80294 13.2324L9.14429 9.87536L12.8006 4.83986H17.0771ZM13.0358 20.4061L8.73802 13.2965L11.3894 11.2331L17.1626 20.4061H13.0358Z" fill="white"/>
<path d="M38.5079 17.7119V20.4061H30.6499V17.7119H38.5079ZM31.8366 4.83986V20.4061H28.3514V4.83986H31.8366ZM45.4999 20.6199C44.5804 20.6199 43.7572 20.4738 43.0302 20.1816C42.3032 19.8893 41.6867 19.4866 41.1807 18.9735C40.6817 18.4532 40.3004 17.8545 40.0367 17.1774C39.773 16.5003 39.6411 15.7768 39.6411 15.0071V14.6008C39.6411 13.7384 39.7623 12.9437 40.0046 12.2167C40.247 11.4897 40.5998 10.8589 41.0631 10.3244C41.5335 9.78271 42.1108 9.36576 42.795 9.07353C43.4792 8.77418 44.2597 8.62451 45.1364 8.62451C45.956 8.62451 46.6866 8.75993 47.328 9.03077C47.9695 9.29448 48.5112 9.6758 48.9531 10.1747C49.395 10.6665 49.73 11.2616 49.958 11.9601C50.1932 12.6515 50.3108 13.4284 50.3108 14.2908V15.6592H40.9882V13.5103H47.0394V13.2537C47.0394 12.8475 46.9645 12.4911 46.8149 12.1846C46.6723 11.8782 46.4585 11.643 46.1734 11.479C45.8954 11.308 45.5426 11.2224 45.115 11.2224C44.7087 11.2224 44.3702 11.308 44.0993 11.479C43.8285 11.6501 43.6111 11.8924 43.4472 12.206C43.2904 12.5125 43.1763 12.8724 43.105 13.2858C43.0338 13.6921 42.9981 14.1304 42.9981 14.6008V15.0071C42.9981 15.4561 43.0587 15.8659 43.1799 16.2366C43.3011 16.6072 43.4792 16.9244 43.7144 17.1881C43.9496 17.4518 44.2347 17.6585 44.5697 17.8081C44.9047 17.9578 45.286 18.0327 45.7137 18.0327C46.2411 18.0327 46.7436 17.9329 47.2211 17.7333C47.6987 17.5266 48.112 17.2059 48.4613 16.7711L50.0222 18.5565C49.787 18.8986 49.4556 19.2301 49.0279 19.5508C48.6074 19.8644 48.1013 20.121 47.5098 20.3206C46.9182 20.5201 46.2482 20.6199 45.4999 20.6199ZM58.0619 17.6478V12.6871C58.0619 12.3379 58.0084 12.0385 57.9015 11.7891C57.7946 11.5396 57.6271 11.3436 57.399 11.2011C57.171 11.0585 56.8752 10.9872 56.5117 10.9872C56.2052 10.9872 55.9379 11.0407 55.7098 11.1476C55.4889 11.2545 55.3178 11.4078 55.1967 11.6073C55.0826 11.8069 55.0256 12.0528 55.0256 12.345H51.69C51.69 11.8247 51.8076 11.34 52.0428 10.891C52.278 10.442 52.613 10.0464 53.0478 9.70431C53.4897 9.36219 54.0171 9.09848 54.63 8.91317C55.243 8.72073 55.9308 8.62451 56.6934 8.62451C57.5986 8.62451 58.404 8.77775 59.1096 9.08422C59.8223 9.38357 60.3854 9.83616 60.7988 10.442C61.2122 11.0407 61.4189 11.7962 61.4189 12.7085V17.5516C61.4189 18.25 61.4581 18.7989 61.5365 19.198C61.622 19.59 61.7432 19.9321 61.9 20.2243V20.4061H58.5323C58.3755 20.0711 58.2579 19.6577 58.1795 19.1659C58.1011 18.667 58.0619 18.161 58.0619 17.6478ZM58.4788 13.35L58.5002 15.1888H56.8431C56.4725 15.1888 56.1517 15.2352 55.8809 15.3278C55.6172 15.4205 55.4034 15.5488 55.2394 15.7127C55.0755 15.8695 54.9543 16.0548 54.8759 16.2686C54.8047 16.4753 54.769 16.7034 54.769 16.9529C54.769 17.1881 54.826 17.4019 54.9401 17.5943C55.0541 17.7796 55.2109 17.9258 55.4105 18.0327C55.6101 18.1396 55.8417 18.193 56.1054 18.193C56.5402 18.193 56.9108 18.1075 57.2173 17.9364C57.5309 17.7654 57.7732 17.5587 57.9443 17.3164C58.1153 17.0669 58.2009 16.8353 58.2009 16.6214L59.0027 18.0113C58.8744 18.2964 58.7176 18.5922 58.5323 18.8986C58.347 19.198 58.1118 19.4795 57.8267 19.7432C57.5416 19.9998 57.1959 20.2101 56.7896 20.374C56.3905 20.5379 55.9094 20.6199 55.3463 20.6199C54.6193 20.6199 53.9601 20.4738 53.3685 20.1816C52.7769 19.8822 52.3029 19.4724 51.9466 18.9521C51.5973 18.4318 51.4227 17.8331 51.4227 17.156C51.4227 16.5502 51.5332 16.012 51.7541 15.5416C51.9751 15.0712 52.3065 14.6721 52.7484 14.3442C53.1974 14.0164 53.7605 13.7705 54.4376 13.6066C55.1147 13.4355 55.9058 13.35 56.811 13.35H58.4788ZM66.9569 11.5325V20.4061H63.6212V8.83833H66.7537L66.9569 11.5325ZM70.4101 8.7528L70.3566 11.8639C70.2141 11.8425 70.0288 11.8247 69.8007 11.8104C69.5726 11.7891 69.3766 11.7784 69.2127 11.7784C68.785 11.7784 68.4144 11.8318 68.1008 11.9387C67.7943 12.0385 67.5377 12.1882 67.331 12.3878C67.1315 12.5873 66.9818 12.8368 66.882 13.1361C66.7822 13.4284 66.7323 13.7669 66.7323 14.1518L66.1016 13.8418C66.1016 13.0791 66.1764 12.3806 66.3261 11.7463C66.4758 11.112 66.6931 10.5632 66.9782 10.0999C67.2633 9.62947 67.6126 9.26597 68.026 9.00939C68.4394 8.7528 68.9098 8.62451 69.4372 8.62451C69.6082 8.62451 69.7829 8.6352 69.9611 8.65658C70.1392 8.67796 70.2889 8.71004 70.4101 8.7528ZM75.05 11.308V20.4061H71.7037V8.83833H74.8469L75.05 11.308ZM74.6117 14.2159L73.7778 14.2373C73.7778 13.3678 73.8847 12.5873 74.0985 11.896C74.3123 11.2046 74.6152 10.6166 75.0072 10.1319C75.4064 9.64016 75.8803 9.26597 76.4292 9.00939C76.9851 8.7528 77.5981 8.62451 78.268 8.62451C78.8097 8.62451 79.3051 8.70291 79.7541 8.85971C80.2031 9.01651 80.588 9.26954 80.9087 9.61878C81.2366 9.96089 81.486 10.417 81.6571 10.9872C81.8282 11.5503 81.9137 12.2452 81.9137 13.072V20.4061H78.5567V13.0613C78.5567 12.5766 78.489 12.2025 78.3536 11.9387C78.2181 11.675 78.0186 11.4897 77.7549 11.3828C77.4983 11.2759 77.1847 11.2224 76.814 11.2224C76.422 11.2224 76.087 11.3008 75.8091 11.4576C75.5311 11.6073 75.303 11.8176 75.1248 12.0884C74.9467 12.3593 74.8148 12.6764 74.7293 13.0399C74.6509 13.4034 74.6117 13.7954 74.6117 14.2159ZM87.612 8.83833V20.4061H84.2657V8.83833H87.612ZM84.0626 5.84482C84.0626 5.36016 84.2337 4.96459 84.5758 4.65811C84.9179 4.34451 85.3669 4.18771 85.9228 4.18771C86.4788 4.18771 86.9278 4.34451 87.2699 4.65811C87.6192 4.96459 87.7938 5.36016 87.7938 5.84482C87.7938 6.32236 87.6192 6.71793 87.2699 7.03153C86.9278 7.33801 86.4788 7.49125 85.9228 7.49125C85.3669 7.49125 84.9179 7.33801 84.5758 7.03153C84.2337 6.71793 84.0626 6.32236 84.0626 5.84482ZM93.289 11.308V20.4061H89.9427V8.83833H93.0859L93.289 11.308ZM92.8507 14.2159L92.0168 14.2373C92.0168 13.3678 92.1237 12.5873 92.3375 11.896C92.5513 11.2046 92.8542 10.6166 93.2462 10.1319C93.6454 9.64016 94.1193 9.26597 94.6681 9.00939C95.2241 8.7528 95.837 8.62451 96.507 8.62451C97.0487 8.62451 97.5441 8.70291 97.9931 8.85971C98.4421 9.01651 98.827 9.26954 99.1477 9.61878C99.4756 9.96089 99.725 10.417 99.8961 10.9872C100.067 11.5503 100.153 12.2452 100.153 13.072V20.4061H96.7957V13.0613C96.7957 12.5766 96.728 12.2025 96.5925 11.9387C96.4571 11.675 96.2576 11.4897 95.9938 11.3828C95.7373 11.2759 95.4237 11.2224 95.053 11.2224C94.661 11.2224 94.326 11.3008 94.0481 11.4576C93.7701 11.6073 93.542 11.8176 93.3638 12.0884C93.1857 12.3593 93.0538 12.6764 92.9683 13.0399C92.8899 13.4034 92.8507 13.7954 92.8507 14.2159ZM109.625 8.83833H112.661V19.9891C112.661 21.0511 112.419 21.9527 111.934 22.694C111.457 23.4352 110.79 23.9983 109.935 24.3832C109.08 24.768 108.078 24.9605 106.931 24.9605C106.432 24.9605 105.912 24.8928 105.37 24.7574C104.828 24.6291 104.319 24.4331 103.841 24.1693C103.364 23.9128 102.964 23.5849 102.644 23.1858L104.066 21.2186C104.393 21.5892 104.785 21.8886 105.242 22.1167C105.698 22.3519 106.218 22.4695 106.803 22.4695C107.337 22.4695 107.79 22.3732 108.16 22.1808C108.531 21.9884 108.812 21.7068 109.005 21.3362C109.204 20.9656 109.304 20.5166 109.304 19.9891V11.5432L109.625 8.83833ZM101.895 14.7612V14.5367C101.895 13.66 102.002 12.8617 102.216 12.1419C102.43 11.4149 102.74 10.7912 103.146 10.2709C103.56 9.74351 104.055 9.33725 104.632 9.05215C105.217 8.76705 105.872 8.62451 106.599 8.62451C107.383 8.62451 108.032 8.77418 108.545 9.07353C109.058 9.36576 109.475 9.77914 109.796 10.3137C110.117 10.8411 110.37 11.4648 110.555 12.1846C110.74 12.8974 110.89 13.6707 111.004 14.5046V14.8895C110.89 15.6878 110.726 16.4326 110.512 17.1239C110.299 17.8153 110.021 18.4247 109.678 18.9521C109.336 19.4724 108.909 19.8822 108.396 20.1816C107.889 20.4738 107.284 20.6199 106.578 20.6199C105.858 20.6199 105.21 20.4738 104.632 20.1816C104.055 19.8893 103.56 19.4795 103.146 18.9521C102.74 18.4247 102.43 17.8046 102.216 17.0918C102.002 16.3791 101.895 15.6022 101.895 14.7612ZM105.231 14.5367V14.7612C105.231 15.2173 105.274 15.6414 105.359 16.0334C105.452 16.4254 105.587 16.7711 105.765 17.0705C105.951 17.3698 106.179 17.605 106.45 17.7761C106.728 17.94 107.052 18.022 107.423 18.022C107.964 18.022 108.403 17.9079 108.738 17.6799C109.08 17.4447 109.329 17.1204 109.486 16.707C109.65 16.2936 109.735 15.8125 109.743 15.2637V14.1411C109.743 13.685 109.696 13.2751 109.604 12.9116C109.511 12.5481 109.372 12.2417 109.187 11.9922C109.008 11.7427 108.773 11.5539 108.481 11.4256C108.196 11.2902 107.85 11.2224 107.444 11.2224C107.081 11.2224 106.76 11.308 106.482 11.479C106.204 11.643 105.972 11.8746 105.787 12.1739C105.602 12.4733 105.463 12.8261 105.37 13.2324C105.277 13.6315 105.231 14.0663 105.231 14.5367Z" fill="black"/>
</svg>
