<svg width="164" height="31" viewBox="0 0 164 31" fill="none" xmlns="http://www.w3.org/2000/svg">
<rect width="25.6434" height="30.6296" fill="#6871D1"/>
<rect x="143.739" y="21.2204" width="5.13532" height="5.13532" fill="#6871D1"/>
<rect x="151.011" y="21.2204" width="5.13532" height="5.13532" fill="#6871D1"/>
<rect x="158.283" y="21.2204" width="5.13532" height="5.13532" fill="#6871D1"/>
<path d="M9.20808 6.41586V24.8493H5.08082V6.41586H9.20808ZM20.2226 6.41586L13.0062 15.6326L8.80295 20.1903L8.05599 16.3542L10.8286 12.3789L15.1584 6.41586H20.2226ZM15.437 24.8493L10.3475 16.4302L13.4873 13.9867L20.3238 24.8493H15.437Z" fill="white"/>
<path d="M45.6008 21.6589V24.8493H36.2954V21.6589H45.6008ZM37.7007 6.41586V24.8493H33.5735V6.41586H37.7007ZM53.8806 25.1025C52.7918 25.1025 51.817 24.9295 50.9561 24.5834C50.0952 24.2374 49.3651 23.7605 48.7658 23.1528C48.175 22.5367 47.7235 21.8277 47.4112 21.0259C47.0989 20.224 46.9428 19.3674 46.9428 18.4558V17.9747C46.9428 16.9535 47.0862 16.0124 47.3732 15.1515C47.6602 14.2906 48.078 13.5436 48.6266 12.9106C49.1836 12.2691 49.8673 11.7754 50.6775 11.4293C51.4878 11.0749 52.412 10.8976 53.4502 10.8976C54.4208 10.8976 55.2859 11.058 56.0455 11.3787C56.8051 11.691 57.4466 12.1425 57.9699 12.7334C58.4932 13.3157 58.8899 14.0205 59.16 14.8476C59.4385 15.6663 59.5777 16.5863 59.5777 17.6076V19.2281H48.538V16.6834H55.7037V16.3795C55.7037 15.8984 55.6151 15.4764 55.4378 15.1135C55.269 14.7506 55.0158 14.472 54.6782 14.2779C54.349 14.0754 53.9312 13.9741 53.4248 13.9741C52.9437 13.9741 52.5428 14.0754 52.2221 14.2779C51.9014 14.4805 51.644 14.7674 51.4498 15.1388C51.2641 15.5017 51.1291 15.928 51.0447 16.4175C50.9603 16.8986 50.9181 17.4177 50.9181 17.9747V18.4558C50.9181 18.9876 50.9898 19.4729 51.1333 19.9118C51.2768 20.3506 51.4878 20.7262 51.7663 21.0385C52.0449 21.3508 52.3825 21.5956 52.7792 21.7728C53.1758 21.9501 53.6274 22.0387 54.1338 22.0387C54.7584 22.0387 55.3534 21.9205 55.9189 21.6842C56.4844 21.4394 56.9739 21.0596 57.3875 20.5448L59.2359 22.659C58.9574 23.0642 58.5649 23.4566 58.0585 23.8364C57.5605 24.2078 56.9613 24.5117 56.2607 24.748C55.5602 24.9843 54.7668 25.1025 53.8806 25.1025ZM68.7565 21.5829V15.7085C68.7565 15.295 68.6932 14.9405 68.5666 14.6451C68.44 14.3497 68.2416 14.1176 67.9715 13.9487C67.7014 13.7799 67.3512 13.6955 66.9207 13.6955C66.5578 13.6955 66.2413 13.7588 65.9712 13.8854C65.7096 14.012 65.507 14.1935 65.3635 14.4298C65.2285 14.6662 65.1609 14.9574 65.1609 15.3034H61.2109C61.2109 14.6873 61.3502 14.1133 61.6287 13.5816C61.9072 13.0499 62.3039 12.5814 62.8188 12.1763C63.3421 11.7712 63.9667 11.4589 64.6925 11.2394C65.4184 11.0116 66.2328 10.8976 67.1359 10.8976C68.2079 10.8976 69.1616 11.0791 69.9972 11.442C70.8412 11.7965 71.508 12.3324 71.9975 13.0499C72.487 13.7588 72.7318 14.6535 72.7318 15.7339V21.469C72.7318 22.2961 72.7782 22.946 72.8711 23.4187C72.9724 23.8829 73.1158 24.288 73.3015 24.634V24.8493H69.3135C69.1278 24.4526 68.9886 23.9631 68.8957 23.3807C68.8029 22.7899 68.7565 22.1906 68.7565 21.5829ZM69.2502 16.4935L69.2755 18.671H67.3132C66.8743 18.671 66.4945 18.7259 66.1738 18.8356C65.8615 18.9453 65.6083 19.0973 65.4141 19.2914C65.22 19.4771 65.0765 19.6965 64.9837 19.9497C64.8993 20.1945 64.8571 20.4646 64.8571 20.76C64.8571 21.0385 64.9246 21.2917 65.0597 21.5196C65.1947 21.7391 65.3804 21.9121 65.6167 22.0387C65.853 22.1653 66.1273 22.2286 66.4396 22.2286C66.9545 22.2286 67.3934 22.1273 67.7563 21.9247C68.1277 21.7222 68.4146 21.4774 68.6172 21.1904C68.8198 20.895 68.9211 20.6207 68.9211 20.3675L69.8706 22.0134C69.7187 22.351 69.533 22.7012 69.3135 23.0642C69.0941 23.4187 68.8156 23.752 68.4779 24.0643C68.1403 24.3682 67.731 24.6172 67.2499 24.8113C66.7772 25.0054 66.2075 25.1025 65.5408 25.1025C64.6798 25.1025 63.8991 24.9295 63.1986 24.5834C62.4981 24.2289 61.9368 23.7436 61.5148 23.1275C61.1012 22.5113 60.8944 21.8024 60.8944 21.0005C60.8944 20.2831 61.0252 19.6459 61.2869 19.0888C61.5485 18.5318 61.941 18.0591 62.4643 17.6709C62.996 17.2826 63.6628 16.9914 64.4646 16.7973C65.2664 16.5948 66.2033 16.4935 67.2752 16.4935H69.2502ZM79.2898 14.3412V24.8493H75.3398V11.1508H79.0493L79.2898 14.3412ZM83.3791 11.0495L83.3158 14.7337C83.147 14.7084 82.9276 14.6873 82.6575 14.6704C82.3874 14.6451 82.1553 14.6324 81.9612 14.6324C81.4548 14.6324 81.0159 14.6957 80.6445 14.8223C80.2816 14.9405 79.9777 15.1177 79.733 15.354C79.4966 15.5904 79.3194 15.8858 79.2012 16.2403C79.0831 16.5863 79.024 16.9872 79.024 17.443L78.277 17.0758C78.277 16.1727 78.3656 15.3456 78.5429 14.5944C78.7201 13.8432 78.9776 13.1933 79.3152 12.6447C79.6528 12.0877 80.0663 11.6572 80.5559 11.3534C81.0454 11.0495 81.6025 10.8976 82.227 10.8976C82.4296 10.8976 82.6364 10.9103 82.8474 10.9356C83.0584 10.9609 83.2356 10.9989 83.3791 11.0495ZM88.8737 14.0754V24.8493H84.911V11.1508H88.6332L88.8737 14.0754ZM88.3546 17.519L87.3671 17.5443C87.3671 16.5146 87.4937 15.5904 87.7469 14.7717C88.0001 13.953 88.3588 13.2567 88.8231 12.6827C89.2957 12.1003 89.857 11.6572 90.5069 11.3534C91.1652 11.0495 91.8911 10.8976 92.6845 10.8976C93.3259 10.8976 93.9125 10.9905 94.4442 11.1761C94.976 11.3618 95.4317 11.6615 95.8115 12.075C96.1998 12.4802 96.4952 13.0203 96.6978 13.6955C96.9003 14.3623 97.0016 15.1852 97.0016 16.1643V24.8493H93.0263V16.1516C93.0263 15.5777 92.9461 15.1346 92.7857 14.8223C92.6254 14.51 92.389 14.2906 92.0768 14.164C91.7729 14.0374 91.4015 13.9741 90.9626 13.9741C90.4984 13.9741 90.1017 14.0669 89.7726 14.2526C89.4434 14.4298 89.1733 14.6788 88.9623 14.9996C88.7513 15.3203 88.5952 15.6959 88.4939 16.1263C88.401 16.5568 88.3546 17.021 88.3546 17.519ZM103.75 11.1508V24.8493H99.7869V11.1508H103.75ZM99.5463 7.60593C99.5463 7.032 99.7489 6.56357 100.154 6.20064C100.559 5.82927 101.091 5.64359 101.749 5.64359C102.408 5.64359 102.939 5.82927 103.344 6.20064C103.758 6.56357 103.965 7.032 103.965 7.60593C103.965 8.17143 103.758 8.63986 103.344 9.01123C102.939 9.37416 102.408 9.55562 101.749 9.55562C101.091 9.55562 100.559 9.37416 100.154 9.01123C99.7489 8.63986 99.5463 8.17143 99.5463 7.60593ZM110.472 14.0754V24.8493H106.51V11.1508H110.232L110.472 14.0754ZM109.953 17.519L108.966 17.5443C108.966 16.5146 109.092 15.5904 109.345 14.7717C109.599 13.953 109.957 13.2567 110.422 12.6827C110.894 12.1003 111.455 11.6572 112.105 11.3534C112.764 11.0495 113.49 10.8976 114.283 10.8976C114.924 10.8976 115.511 10.9905 116.043 11.1761C116.574 11.3618 117.03 11.6615 117.41 12.075C117.798 12.4802 118.094 13.0203 118.296 13.6955C118.499 14.3623 118.6 15.1852 118.6 16.1643V24.8493H114.625V16.1516C114.625 15.5777 114.545 15.1346 114.384 14.8223C114.224 14.51 113.988 14.2906 113.675 14.164C113.371 14.0374 113 13.9741 112.561 13.9741C112.097 13.9741 111.7 14.0669 111.371 14.2526C111.042 14.4298 110.772 14.6788 110.561 14.9996C110.35 15.3203 110.194 15.6959 110.092 16.1263C110 16.5568 109.953 17.021 109.953 17.519ZM129.817 11.1508H133.413V24.3555C133.413 25.6131 133.126 26.6808 132.552 27.5586C131.986 28.4364 131.197 29.1031 130.184 29.5589C129.171 30.0147 127.986 30.2426 126.627 30.2426C126.036 30.2426 125.42 30.1624 124.778 30.002C124.137 29.8501 123.533 29.618 122.968 29.3057C122.402 29.0019 121.93 28.6136 121.55 28.141L123.234 25.8115C123.622 26.2503 124.086 26.6048 124.626 26.8749C125.167 27.1534 125.783 27.2927 126.475 27.2927C127.108 27.2927 127.644 27.1788 128.083 26.9509C128.522 26.723 128.855 26.3896 129.083 25.9507C129.319 25.5118 129.437 24.9801 129.437 24.3555V14.3539L129.817 11.1508ZM120.664 18.1646V17.8988C120.664 16.8606 120.79 15.9153 121.044 15.0629C121.297 14.202 121.664 13.4634 122.145 12.8473C122.635 12.2227 123.221 11.7416 123.905 11.404C124.597 11.0664 125.373 10.8976 126.234 10.8976C127.163 10.8976 127.931 11.0749 128.538 11.4293C129.146 11.7754 129.64 12.2649 130.02 12.8979C130.4 13.5225 130.699 14.261 130.919 15.1135C131.138 15.9575 131.315 16.8733 131.45 17.8608V18.3166C131.315 19.2619 131.121 20.1439 130.868 20.9626C130.615 21.7813 130.286 22.5029 129.88 23.1275C129.475 23.7436 128.969 24.2289 128.361 24.5834C127.762 24.9295 127.045 25.1025 126.209 25.1025C125.356 25.1025 124.588 24.9295 123.905 24.5834C123.221 24.2374 122.635 23.752 122.145 23.1275C121.664 22.5029 121.297 21.7686 121.044 20.9246C120.79 20.0806 120.664 19.1606 120.664 18.1646ZM124.614 17.8988V18.1646C124.614 18.7048 124.664 19.207 124.766 19.6712C124.875 20.1354 125.036 20.5448 125.247 20.8993C125.466 21.2537 125.736 21.5323 126.057 21.7348C126.386 21.929 126.77 22.026 127.209 22.026C127.851 22.026 128.37 21.891 128.766 21.6209C129.171 21.3424 129.467 20.9583 129.653 20.4688C129.847 19.9793 129.948 19.4096 129.956 18.7597V17.4303C129.956 16.8902 129.902 16.4048 129.792 15.9744C129.682 15.5439 129.518 15.181 129.298 14.8856C129.087 14.5902 128.809 14.3665 128.462 14.2146C128.125 14.0543 127.716 13.9741 127.234 13.9741C126.804 13.9741 126.424 14.0754 126.095 14.2779C125.766 14.472 125.492 14.7463 125.272 15.1008C125.053 15.4553 124.888 15.8731 124.778 16.3542C124.669 16.8269 124.614 17.3417 124.614 17.8988Z" fill="white"/>
</svg>
