<svg width="163" height="27" viewBox="0 0 163 27" fill="none" xmlns="http://www.w3.org/2000/svg">
<path d="M12.5425 1.6872C12.8071 1.21768 13.4832 1.21768 13.7479 1.6872L17.162 7.74449C17.2607 7.91965 17.4308 8.0432 17.6279 8.08296L24.4437 9.4582C24.9721 9.5648 25.181 10.2078 24.8162 10.6046L20.1104 15.7235C19.9743 15.8715 19.9094 16.0714 19.9325 16.2711L20.7308 23.1784C20.7926 23.7138 20.2456 24.1112 19.7556 23.8869L13.4331 20.9932C13.2503 20.9095 13.0401 20.9095 12.8572 20.9932L6.53475 23.8869C6.04467 24.1112 5.49767 23.7138 5.55955 23.1784L6.35784 16.2711C6.38093 16.0714 6.31597 15.8715 6.17989 15.7235L1.47409 10.6046C1.10933 10.2078 1.31827 9.5648 1.84659 9.4582L8.66244 8.08296C8.85954 8.0432 9.02958 7.91965 9.12831 7.74449L12.5425 1.6872Z" fill="#F3B411"/>
<path d="M46.7199 1.68718C46.9845 1.21766 47.6607 1.21766 47.9253 1.68718L51.3394 7.74447C51.4382 7.91963 51.6082 8.04318 51.8053 8.08295L58.6212 9.45818C59.1495 9.56478 59.3584 10.2078 58.9937 10.6046L54.2879 15.7234C54.1518 15.8715 54.0868 16.0714 54.1099 16.2711L54.9082 23.1783C54.9701 23.7137 54.4231 24.1112 53.933 23.8869L47.6105 20.9932C47.4277 20.9095 47.2175 20.9095 47.0347 20.9932L40.7122 23.8869C40.2221 24.1112 39.6751 23.7137 39.737 23.1783L40.5353 16.2711C40.5584 16.0714 40.4934 15.8715 40.3573 15.7234L35.6515 10.6046C35.2868 10.2078 35.4957 9.56478 36.024 9.45818L42.8399 8.08295C43.037 8.04318 43.207 7.91963 43.3057 7.74447L46.7199 1.68718Z" fill="#F3B411"/>
<path d="M80.8973 1.68718C81.162 1.21766 81.8381 1.21766 82.1027 1.68718L85.5169 7.74447C85.6156 7.91963 85.7856 8.04318 85.9827 8.08295L92.7986 9.45818C93.3269 9.56478 93.5358 10.2078 93.1711 10.6046L88.4653 15.7234C88.3292 15.8715 88.2643 16.0714 88.2873 16.2711L89.0856 23.1783C89.1475 23.7137 88.6005 24.1112 88.1104 23.8869L81.7879 20.9932C81.6051 20.9095 81.3949 20.9095 81.2121 20.9932L74.8896 23.8869C74.3995 24.1112 73.8525 23.7137 73.9144 23.1783L74.7127 16.2711C74.7358 16.0714 74.6708 15.8715 74.5348 15.7234L69.829 10.6046C69.4642 10.2078 69.6731 9.56478 70.2014 9.45818L77.0173 8.08295C77.2144 8.04318 77.3844 7.91963 77.4832 7.74447L80.8973 1.68718Z" fill="#F3B411"/>
<path d="M115.075 1.68718C115.339 1.21766 116.015 1.21766 116.28 1.68718L119.694 7.74447C119.793 7.91963 119.963 8.04318 120.16 8.08295L126.976 9.45818C127.504 9.56478 127.713 10.2078 127.348 10.6046L122.643 15.7234C122.507 15.8715 122.442 16.0714 122.465 16.2711L123.263 23.1783C123.325 23.7137 122.778 24.1112 122.288 23.8869L115.965 20.9932C115.782 20.9095 115.572 20.9095 115.389 20.9932L109.067 23.8869C108.577 24.1112 108.03 23.7137 108.092 23.1783L108.89 16.2711C108.913 16.0714 108.848 15.8715 108.712 15.7234L104.006 10.6046C103.642 10.2078 103.85 9.56478 104.379 9.45818L111.195 8.08295C111.392 8.04318 111.562 7.91963 111.661 7.74447L115.075 1.68718Z" fill="#F3B411"/>
<path d="M149.252 1.68718C149.517 1.21766 150.193 1.21766 150.458 1.68718L153.872 7.74447C153.97 7.91963 154.14 8.04318 154.338 8.08295L161.153 9.45818C161.682 9.56478 161.891 10.2078 161.526 10.6046L156.82 15.7234C156.684 15.8715 156.619 16.0714 156.642 16.2711L157.44 23.1783C157.502 23.7137 156.955 24.1112 156.465 23.8869L150.143 20.9932C149.96 20.9095 149.75 20.9095 149.567 20.9932L143.244 23.8869C142.754 24.1112 142.207 23.7137 142.269 23.1783L143.067 16.2711C143.091 16.0714 143.026 15.8715 142.89 15.7234L138.184 10.6046C137.819 10.2078 138.028 9.56478 138.556 9.45818L145.372 8.08295C145.569 8.04318 145.739 7.91963 145.838 7.74447L149.252 1.68718Z" fill="#F3B411"/>
</svg>
